<svg xmlns="http://www.w3.org/2000/svg" width="1685" height="559" viewBox="0 0 1685 559" version="1.1"><path d="M 219.698 7.096 C 208.249 9.790, 195.961 19.439, 187.554 32.339 C 183.637 38.349, 181.973 40.061, 179.554 40.571 C 174.468 41.643, 167.157 46.106, 162.871 50.756 C 160.642 53.174, 158.713 55.005, 158.583 54.826 C 158.453 54.647, 157.352 52.844, 156.135 50.820 C 147.575 36.578, 131.294 35.117, 118.603 47.452 C 108.269 57.495, 101.158 76.660, 100.807 95.415 C 100.680 102.163, 100.274 104.008, 98.347 106.569 C 92.691 114.088, 86 133.583, 86 142.541 C 86 146.683, 85.919 146.783, 81.684 147.849 C 74.460 149.668, 71.762 154.434, 74.970 159.709 C 77.156 163.304, 84.977 168.165, 92.500 170.604 C 98.664 172.603, 100 174.207, 100 179.609 C 100 186.984, 99.779 187.098, 91.692 183.907 C 77.853 178.446, 70 180.898, 70 190.679 C 70 198.257, 77.006 208.722, 84.912 212.953 C 86.060 213.567, 87 214.969, 87 216.068 C 87 222.569, 99.396 238.278, 112.154 247.946 C 121.250 254.838, 135.735 262.606, 145 265.560 C 148.025 266.524, 150.639 267.419, 150.809 267.548 C 150.978 267.678, 150.437 269.412, 149.605 271.402 C 146.526 278.772, 132.533 291.131, 121.700 296.049 C 115.099 299.046, 114.326 298.742, 113.767 292.926 C 113.228 287.321, 110.413 282.667, 107.278 282.197 C 106.054 282.014, 104.575 280.384, 103.530 278.066 C 101.369 273.274, 92.856 264.860, 87.264 261.988 C 84.880 260.764, 80.291 259.585, 76.764 259.292 C 69.269 258.669, 65.681 256.772, 53.670 247.082 C 43.436 238.826, 38.715 236.197, 32.628 235.363 C 26.066 234.463, 21.127 236.453, 19.347 240.713 C 16.587 247.318, 20.179 255.247, 30.086 264.419 C 35.886 269.789, 36.186 270.284, 34.991 272.517 C 33.502 275.298, 33.238 279.376, 34.293 283.261 C 34.922 285.573, 34.660 286.198, 32.689 287.096 C 30.711 287.997, 29.558 287.676, 25.472 285.084 C 9.273 274.811, -2.234 292.227, 10.896 307.144 C 13.037 309.577, 16.974 312.746, 19.645 314.186 C 25.287 317.230, 37.025 321, 40.859 321 C 42.315 321, 45.747 322.593, 48.485 324.539 C 55.410 329.463, 62.638 331.392, 71.621 330.712 C 77.886 330.238, 79.070 330.420, 80.575 332.083 C 83.534 335.352, 89.974 334.666, 95.432 330.500 C 99.689 327.250, 100.535 326.999, 107.259 326.983 C 123.105 326.945, 137.238 321.386, 148.663 310.699 L 154.888 304.875 154.747 325.188 C 154.508 359.816, 159.495 378.673, 174.259 398.961 C 179.759 406.519, 191.362 418.520, 198.274 423.801 L 203.048 427.447 194.774 429.522 C 176.555 434.091, 162.234 442.199, 148.396 455.780 C 135.016 468.913, 125.476 482.456, 118.307 498.500 C 112.365 511.798, 110.522 520.306, 110.510 534.500 C 110.501 545.020, 110.776 547.016, 112.736 550.682 C 113.965 552.982, 115.346 555.096, 115.804 555.379 C 116.263 555.662, 118.406 553.450, 120.569 550.464 C 122.731 547.477, 126.664 543.383, 129.309 541.364 C 134.978 537.038, 154.525 529.630, 164.653 527.970 C 175.384 526.210, 183.378 523.240, 191.243 518.090 C 199.565 512.642, 204.025 508.013, 209.268 499.382 C 213.166 492.965, 220.554 475.479, 221.621 470.146 C 222.237 467.064, 224 465.713, 224 468.323 C 224 470.792, 233.140 488.463, 238.702 496.747 C 245.934 507.518, 254.699 515.633, 264.058 520.219 C 273.618 524.905, 280.904 526.642, 294.315 527.433 C 307.941 528.237, 326.219 532.064, 333.108 535.555 C 336.014 537.027, 340.932 540.655, 344.036 543.616 C 347.141 546.577, 350.130 549, 350.680 549 C 352.446 549, 354.236 543.681, 354.748 536.910 C 356.362 515.557, 342.372 486.112, 320.193 464.178 C 294.963 439.229, 272.654 428.640, 242.107 427.118 L 229.714 426.500 228.372 422 C 226.939 417.193, 226.618 410.162, 227.606 405.221 L 228.212 402.191 233.356 406.126 C 240.705 411.747, 252.440 417.407, 260 418.976 C 264.225 419.852, 267.597 421.271, 269.633 423.029 C 275.358 427.971, 285.164 427.647, 290.139 422.352 C 291.354 421.059, 293.410 420, 294.706 420 C 297.968 420, 303.142 417.678, 305.311 415.241 C 306.741 413.636, 307.939 413.316, 310.995 413.726 C 320.694 415.027, 330.666 401.791, 333.039 384.468 C 333.639 380.085, 335.230 372.900, 336.576 368.500 C 345.063 340.743, 338.904 308.414, 320.865 286.027 C 315.680 279.593, 315.803 279.344, 322.775 282.143 C 329.331 284.774, 331.451 280.495, 328.070 271.458 C 324.362 261.546, 325.007 259.201, 336.687 240.163 C 340.870 233.345, 345.674 224.557, 347.364 220.633 C 350.063 214.367, 350.429 212.406, 350.378 204.500 C 350.336 197.984, 349.723 193.784, 348.160 189.282 C 346.972 185.861, 346 182.824, 346 182.532 C 346 182.239, 348.489 182, 351.532 182 C 354.575 182, 358.625 181.348, 360.532 180.551 C 363.419 179.345, 364 178.589, 364 176.039 C 364 173.424, 363.206 172.467, 358.585 169.511 C 348.726 163.205, 347.482 159.933, 346.031 136.500 C 344.817 116.889, 343.247 108.402, 339.442 100.869 C 336.184 94.421, 325.073 83.204, 319.452 80.689 L 315.404 78.879 322.233 71.829 C 333.247 60.460, 341.096 41.704, 339.366 30.886 C 338.478 25.333, 336.792 24.311, 332.771 26.888 C 316.816 37.115, 299.395 34.408, 259 15.424 C 239.854 6.426, 230.746 4.496, 219.698 7.096 M 215.220 16.972 C 208.234 20.278, 199.556 27.936, 194.995 34.821 C 191.746 39.726, 191.228 42, 193.359 42 C 195.190 42, 203.203 49.142, 204.873 52.262 C 206.060 54.481, 207.217 54.894, 215.033 55.897 C 244.360 59.658, 269.885 72.012, 290.375 92.362 C 301.075 102.989, 311.318 117.762, 317.149 130.976 C 324.156 146.854, 329.991 173.893, 329.993 190.500 C 329.996 208.425, 322.912 244.268, 316.109 260.744 L 313.118 267.988 316.404 270.494 C 320.544 273.653, 321.195 273.642, 319.975 270.435 C 318.236 265.861, 318.857 257.846, 321.366 252.500 C 322.656 249.750, 327.003 242.100, 331.025 235.500 C 335.048 228.900, 339.388 220.921, 340.669 217.770 C 343.976 209.639, 343.808 200.437, 340.111 187.204 C 336.556 174.481, 336.922 173.738, 346.301 174.633 L 352.500 175.224 348.814 172.092 C 342.141 166.422, 340.086 160.456, 338.942 143.435 C 336.496 107.036, 334.080 100.791, 317.493 87.994 C 312.011 83.765, 309 79.699, 309 76.524 C 309 75.658, 311.652 72.099, 314.893 68.615 C 322.613 60.317, 325.135 56.382, 329.937 45.147 C 333.035 37.898, 333.544 35.981, 332.213 36.561 C 331.271 36.971, 328.025 38.188, 325 39.265 C 312.118 43.852, 290.717 38.722, 257 22.965 C 240.035 15.037, 236.719 14.013, 228 14.006 C 222.861 14.003, 220.185 14.624, 215.220 16.972 M 176.500 19.037 C 168.997 21.361, 165.078 28.078, 168.960 31.960 L 171.093 34.093 176.418 31.047 C 179.347 29.371, 182.406 28, 183.217 28 C 185.085 28, 188 24.827, 188 22.794 C 188 19.355, 181.904 17.364, 176.500 19.037 M 137.193 19.704 C 135.925 19.952, 134.391 21.242, 133.785 22.573 C 132.887 24.543, 133.019 25.364, 134.496 26.996 C 135.494 28.098, 136.973 29, 137.783 29 C 138.594 29, 141.699 30.397, 144.684 32.105 C 149.897 35.088, 150.187 35.141, 152.055 33.450 C 155.590 30.251, 154.200 25.500, 148.763 22.197 C 145.121 19.986, 140.670 19.027, 137.193 19.704 M 176.250 23.973 C 173.798 25.086, 172 26.586, 172 27.519 C 172 28.917, 172.381 28.865, 174.811 27.135 C 176.357 26.034, 178.829 24.830, 180.304 24.460 C 181.779 24.090, 182.738 23.385, 182.434 22.893 C 181.676 21.666, 181.118 21.764, 176.250 23.973 M 140.500 25.222 C 142.150 25.807, 144.694 27.121, 146.154 28.143 C 149.170 30.253, 150 30.435, 150 28.985 C 150 27.269, 143.671 24.003, 140.500 24.083 L 137.500 24.158 140.500 25.222 M 133.994 45.959 C 119.794 50.138, 108.787 69.943, 107.323 93.943 C 106.406 108.989, 111.356 125.119, 118.584 130.632 C 123.294 134.224, 129.471 134.821, 134.642 132.183 C 139.906 129.497, 146 122.691, 146 119.497 C 146 116.457, 145.691 116.429, 142.029 119.136 C 140.144 120.530, 137.662 121.273, 134.889 121.273 C 131.316 121.273, 130.131 120.720, 127.459 117.804 C 124.029 114.061, 121.375 105.626, 122.375 101.644 C 122.738 100.194, 124.436 98.656, 126.898 97.546 L 130.839 95.769 127.846 90.904 C 125.812 87.599, 125.065 85.371, 125.515 83.954 C 126.450 81.008, 131.780 75.165, 135.099 73.449 C 138.320 71.783, 144.286 71.547, 146.962 72.980 C 148.556 73.833, 149.143 73.135, 151.508 67.570 L 154.223 61.181 151.375 55.948 C 147.266 48.398, 139.964 44.202, 133.994 45.959 M 177 48.587 C 168.588 52.215, 159.187 64.645, 154.372 78.510 C 151.866 85.727, 151.592 87.855, 151.549 100.500 C 151.508 112.069, 151.844 115.427, 153.479 119.838 C 157.026 129.404, 164.492 136.016, 171.718 135.990 C 175.862 135.976, 184.029 131.742, 188 127.550 L 191.500 123.854 188.500 124.642 C 178.688 127.218, 171.776 121.344, 170.339 109.211 C 169.396 101.256, 170.249 99.364, 175.068 98.718 C 177.321 98.415, 179.397 97.936, 179.680 97.653 C 179.963 97.370, 179.521 94.185, 178.698 90.576 C 177.270 84.317, 177.293 83.897, 179.189 81.487 C 185.333 73.676, 197.395 74.649, 201.224 83.266 C 202.015 85.045, 203.157 87.625, 203.763 89 C 204.661 91.038, 204.877 89.622, 204.932 81.339 C 205.099 56.329, 192.717 41.811, 177 48.587 M 210.671 66.300 C 211.127 68.610, 211.488 75.900, 211.474 82.500 C 211.442 96.919, 209.846 103.736, 203.456 116.750 C 194.045 135.912, 179.051 145.580, 165.146 141.451 C 160.113 139.956, 153.567 134.819, 151.252 130.547 C 150.250 128.699, 149.966 128.798, 145.986 132.394 C 140.998 136.900, 132.696 140.979, 128.500 140.985 C 122.987 140.992, 117.830 138.884, 113.422 134.821 C 109.069 130.809, 103 120.338, 103 116.840 C 103 113.409, 101.283 114.978, 98.673 120.794 C 95.765 127.273, 93.037 137.837, 93.015 142.705 C 93.001 145.636, 93.320 145.962, 96.750 146.523 C 100.785 147.184, 108.812 148.765, 127 152.480 C 145.324 156.223, 152.097 156.505, 161.500 153.917 C 172.343 150.932, 175.412 150.882, 175.811 153.682 C 176.633 159.455, 154.705 163.621, 136.906 161.072 C 132.283 160.410, 121.381 158.323, 112.679 156.434 C 96.027 152.820, 89.367 152.279, 84.104 154.114 C 80.178 155.482, 80.495 156.718, 85.665 160.208 C 94.763 166.348, 117.572 170.609, 136.723 169.746 C 156.649 168.848, 170.160 165.140, 181.698 157.404 C 185.310 154.982, 189.001 153, 189.900 153 C 193.054 153, 198.586 157.822, 201.529 163.136 C 204.138 167.847, 204.498 169.480, 204.487 176.547 C 204.476 183.606, 204.071 185.414, 201.195 191.256 C 194.013 205.844, 181.012 211.832, 159 210.689 C 140.556 209.731, 123.310 205.106, 100.365 194.963 C 84.619 188.003, 80.157 186.625, 78.316 188.152 C 76.153 189.948, 76.815 194.448, 79.854 198.600 C 83.746 203.920, 85.706 205.517, 91.271 207.902 C 96.754 210.252, 98.224 212.632, 95.445 214.664 C 93.623 215.996, 93.621 216.141, 95.374 219.397 C 98.777 225.716, 106.932 234.805, 114.894 241.153 C 141.426 262.309, 173.306 268.316, 203.895 257.925 C 214.476 254.331, 223.661 248.195, 232.684 238.694 C 252.414 217.919, 260.801 194.014, 255.500 173.661 C 253.816 167.195, 253.497 158, 254.958 158 C 256.383 158, 260.655 165.855, 262.028 171 C 262.688 173.475, 263.404 176.105, 263.619 176.844 C 263.873 177.717, 265.584 176.636, 268.502 173.759 C 273.950 168.388, 282.760 163.726, 286.613 164.175 C 293.311 164.955, 295.562 176.953, 290.599 185.421 L 287.814 190.173 289.931 192.427 C 294.531 197.323, 294.517 204.620, 289.892 212.459 C 288.315 215.132, 288.104 216.325, 288.935 217.878 C 290.586 220.963, 290.254 222.404, 286.684 227.638 C 284.860 230.312, 282.663 234.300, 281.802 236.500 C 280.444 239.968, 279.777 240.540, 276.789 240.800 C 271.007 241.304, 262.170 237.301, 256.470 231.596 L 251.379 226.500 246.439 233.388 C 238.468 244.503, 226.332 255.156, 215.652 260.413 C 201.562 267.349, 194.067 269.112, 176.500 269.625 C 161.621 270.059, 161.504 270.080, 162 272.281 C 162.565 274.789, 162.601 293.772, 162.098 324 C 161.395 366.235, 168.633 385.951, 193.711 410.106 C 206.217 422.151, 213.936 427, 220.605 427 C 222.876 427, 222.889 426.937, 221.456 422.874 C 219.625 417.686, 219.605 408.074, 221.410 401.294 L 222.796 396.088 218.773 390.794 C 208.121 376.775, 201.745 357.038, 201.719 338 C 201.691 318.284, 207.069 304.028, 220.152 289.137 C 236.408 270.634, 254.516 260.079, 270.111 260.015 C 273.377 260.001, 273.679 259.771, 273.266 257.609 C 272.933 255.872, 273.806 254.113, 276.457 251.179 C 280.551 246.648, 288.807 241, 291.338 241 C 293.604 241, 300.305 247.875, 304.631 254.638 C 306.591 257.701, 308.544 259.823, 308.973 259.353 C 309.792 258.456, 313.700 246.636, 316.516 236.539 C 318.888 228.034, 322.995 198.774, 322.978 190.500 C 322.964 183.232, 321.245 170.563, 318.638 158.500 C 307.455 106.762, 266.966 69.776, 213.671 62.615 L 209.841 62.100 210.671 66.300 M 1240 80.685 C 1238.625 80.955, 1236.487 82.114, 1235.250 83.262 L 1233 85.349 1233 246.564 C 1233 403.800, 1233.047 407.837, 1234.911 410.139 L 1236.823 412.500 1337.161 412.780 C 1392.348 412.933, 1438.500 412.815, 1439.722 412.517 C 1440.945 412.220, 1442.857 410.996, 1443.972 409.799 C 1445.894 407.736, 1446 406.351, 1446 383.266 L 1446 358.909 1443.545 356.455 L 1441.091 354 1368.045 354 L 1295 354 1295 220.056 L 1295 86.112 1292.588 83.306 L 1290.176 80.500 1266.338 80.348 C 1253.227 80.264, 1241.375 80.416, 1240 80.685 M 1397.750 80.664 C 1394.921 81.444, 1395.677 84.162, 1401.349 93.600 C 1404.290 98.495, 1429.265 140.595, 1456.849 187.157 L 1507 271.813 1507 338.860 C 1507 386.842, 1507.324 406.616, 1508.138 408.403 C 1508.764 409.777, 1510.631 411.373, 1512.287 411.950 C 1514.050 412.565, 1524.782 413, 1538.181 413 C 1564.887 413, 1567.213 412.495, 1568.925 406.330 C 1569.627 403.803, 1569.991 380.038, 1569.996 336.500 L 1570.003 270.500 1578.131 257 C 1582.601 249.575, 1601.336 218.075, 1619.765 187 C 1638.193 155.925, 1659.510 120.028, 1667.135 107.229 C 1674.761 94.430, 1681 83.345, 1681 82.596 C 1681 81.846, 1679.987 80.962, 1678.750 80.630 C 1674.366 79.456, 1617.680 80.049, 1614.142 81.306 C 1611.344 82.301, 1609.914 84.085, 1605.569 92 C 1602.701 97.225, 1586.467 126.820, 1569.495 157.767 C 1552.522 188.715, 1538.267 213.667, 1537.818 213.218 C 1537.369 212.769, 1521.502 184.074, 1502.557 149.451 C 1483.613 114.828, 1467.027 85.150, 1465.699 83.500 L 1463.286 80.500 1431.393 80.340 C 1413.852 80.252, 1398.713 80.398, 1397.750 80.664 M 469 83 C 467.016 84.984, 467 86.333, 467 246.845 L 467 408.690 469.103 410.595 C 471.036 412.346, 473.275 412.524, 496.777 412.799 C 525.772 413.138, 527.391 412.854, 528.979 407.135 C 529.597 404.910, 529.991 383.830, 529.994 352.772 L 530 302.044 593.087 301.772 L 656.174 301.500 658.587 298.694 C 660.986 295.904, 661 295.758, 661 272.899 L 661 249.909 658.545 247.455 L 656.091 245 593.045 245 L 530 245 530 192 L 530 139 608.750 138.994 C 659.857 138.991, 688.806 138.626, 691.221 137.956 C 697.814 136.125, 698 135.339, 698 109.412 C 698 87.514, 697.889 86.128, 695.927 83.635 L 693.855 81 582.427 81 C 472.333 81, 470.976 81.024, 469 83 M 747.861 82.912 L 745.500 84.823 745.237 245.162 C 745.047 360.698, 745.283 406.250, 746.081 408.185 C 747.840 412.448, 751.324 413, 776.500 413 C 800.449 413, 805.195 412.372, 807.021 408.961 C 808.100 406.944, 808.453 88.343, 807.379 85.545 C 805.834 81.518, 802.220 81, 775.660 81 C 752.104 81, 750.047 81.141, 747.861 82.912 M 874.455 83.455 L 872 85.909 872 247 L 872 408.091 874.465 410.556 L 876.930 413.021 1015.937 412.760 L 1154.945 412.500 1157.222 410.222 L 1159.500 407.944 1159.500 246.886 L 1159.500 85.827 1156.694 83.413 L 1153.888 81 1128.555 81 C 1105.102 81, 1103.046 81.142, 1100.861 82.912 L 1098.500 84.823 1098 196.116 L 1097.500 307.410 1035.392 218.955 C 1001.232 170.305, 965.987 120.032, 957.069 107.238 C 946.518 92.101, 939.850 83.457, 937.977 82.488 C 935.623 81.271, 929.810 81, 906.004 81 L 876.909 81 874.455 83.455 M 187.744 161.426 C 186.117 162.634, 186.103 163.001, 187.547 166.459 C 188.969 169.862, 188.963 170.408, 187.475 172.678 C 185.696 175.393, 180.428 178, 176.721 178 C 174.023 178, 170 174.644, 170 172.394 C 170 171.409, 169.378 171.048, 168.250 171.380 C 150.589 176.574, 131.962 178.244, 117 175.973 C 113.425 175.431, 108.590 174.704, 106.255 174.358 L 102.010 173.729 103.046 176.703 C 103.743 178.702, 103.760 181.113, 103.098 184.061 C 102.556 186.473, 102.200 188.486, 102.306 188.536 C 113.027 193.540, 121.005 196.457, 132.304 199.508 C 140.399 201.693, 141.148 201.748, 141.617 200.192 C 143.165 195.060, 145.617 191.880, 149.464 190.018 C 154.223 187.714, 158.183 187.522, 162.500 189.385 C 165.301 190.594, 165.749 190.469, 169.242 187.501 C 176.742 181.129, 187.956 180.356, 194.229 185.778 C 195.779 187.118, 196.038 187.077, 196.729 185.386 C 197.153 184.349, 197.500 180.575, 197.500 177 C 197.500 166.933, 192.049 158.232, 187.744 161.426 M 177.750 167.685 C 172.641 170.276, 171.786 172.280, 175.047 174.025 C 177.796 175.496, 184.374 172.385, 184.798 169.412 C 185.336 165.646, 182.934 165.057, 177.750 167.685 M 280 170.735 C 278.075 171.664, 273.688 175.212, 270.250 178.620 C 264.306 184.512, 263.999 185.052, 263.985 189.657 C 263.965 196.359, 261.489 206.254, 257.860 214.142 C 254.852 220.679, 254.830 220.840, 256.492 224.342 C 258.349 228.255, 263.107 232.311, 268.468 234.551 C 272.285 236.146, 277 236.480, 277 235.155 C 277 234.690, 278.825 231.486, 281.056 228.035 C 284.745 222.327, 285.014 221.478, 284.026 218.645 C 283.078 215.925, 283.324 214.799, 285.970 209.751 C 289.901 202.252, 289.908 198.617, 286 195.187 C 282.311 191.950, 282.315 190.921, 286.039 184 C 289.255 178.025, 289.625 175.466, 287.839 171.547 C 286.488 168.580, 284.822 168.407, 280 170.735 M 933 266.286 L 933 358 997.088 358 L 1061.176 358 1056.753 351.750 C 1054.320 348.313, 1026.086 307.700, 994.010 261.500 C 961.934 215.300, 935.085 176.841, 934.345 176.036 C 933.217 174.808, 933 189.392, 933 266.286 M 175.182 187.519 C 173.357 188.312, 170.497 189.934, 168.825 191.124 C 166.138 193.038, 165.266 193.169, 161.278 192.256 C 153.905 190.569, 147.480 193.506, 143.892 200.203 C 142.571 202.670, 147.631 203.500, 164 203.500 C 176.240 203.500, 177.920 203.280, 182 201.144 C 187.167 198.439, 194 192.233, 194 190.246 C 194 186.620, 181.442 184.800, 175.182 187.519 M 194 212.511 C 185.300 218.500, 175.042 221.292, 161.303 221.412 C 151.940 221.493, 151.325 221.614, 153.773 222.897 C 159.445 225.869, 178.031 223.591, 189.554 218.511 C 194.620 216.278, 202 210.577, 202 208.896 C 202 207.324, 200.649 207.934, 194 212.511 M 25.710 243.313 C 23.664 248.644, 34.157 261.105, 44.854 266.048 C 48.509 267.737, 53.686 270.244, 56.357 271.619 C 59.029 272.994, 61.292 273.980, 61.387 273.810 C 62.489 271.832, 65 265.720, 65 265.014 C 65 264.509, 62.862 262.643, 60.250 260.866 C 57.638 259.090, 52.339 255.042, 48.476 251.871 C 44.612 248.699, 39.437 245.191, 36.976 244.074 C 31.854 241.751, 26.450 241.386, 25.710 243.313 M 285.180 252.578 C 282.881 254.546, 281 256.622, 281 257.192 C 281 257.762, 283.047 261.513, 285.550 265.528 C 293.504 278.291, 299.886 295.745, 302.867 312.892 L 304.500 322.283 308.967 323.600 C 312.443 324.625, 313.621 324.649, 314.279 323.708 C 315.715 321.658, 314.234 299.058, 312.136 291 C 309.713 281.692, 304.841 269.246, 300.791 262.017 C 297.017 255.280, 292.059 249, 290.513 249 C 289.879 249, 287.479 250.610, 285.180 252.578 M 74.181 266.755 C 71.094 267.290, 68.325 273.837, 67.137 283.403 C 66.017 292.422, 67.050 298.812, 70.016 301.214 C 75.965 306.031, 83.343 299.643, 85.526 287.786 C 86.953 280.032, 92 280.633, 92 288.557 C 92 296.642, 87.231 304.742, 80.573 307.965 C 75.370 310.483, 72.455 310.526, 67.799 308.152 C 64.198 306.317, 64.167 306.319, 63.009 308.483 C 62.368 309.681, 60.474 311.470, 58.801 312.458 C 49.674 317.850, 28.507 307.548, 26.476 296.726 C 25.433 291.162, 16.055 286.819, 13.009 290.489 C 11.164 292.713, 12.547 297.994, 16.105 302.311 C 20.111 307.171, 27.022 310.613, 38.740 313.586 C 44.781 315.118, 50.344 317.324, 54.253 319.738 C 59.907 323.228, 60.901 323.500, 67.993 323.500 C 74.697 323.500, 76.161 323.154, 79.888 320.690 C 82.226 319.145, 84.895 318.024, 85.819 318.200 C 88.038 318.623, 88.507 322.334, 86.548 323.960 C 84.413 325.732, 84.611 327, 87.022 327 C 89.656 327, 97.089 320.108, 100.857 314.173 C 105.644 306.633, 108.536 293.846, 106.235 290.400 C 105.831 289.795, 104.481 288.763, 103.235 288.107 C 101.990 287.451, 99.800 285.021, 98.369 282.707 C 91.388 271.420, 82.203 265.362, 74.181 266.755 M 261.500 268.388 C 253.102 270.433, 246.827 274.154, 239.409 281.489 C 226.116 294.632, 220.234 311.660, 221.288 333.942 C 221.927 347.418, 224.266 356.596, 229.941 367.882 C 237.297 382.514, 248.024 393.592, 260.796 399.749 L 268.092 403.266 271.669 401.383 C 278.580 397.745, 281 394.689, 281 389.599 C 281 387.069, 280.887 385.006, 280.750 385.013 C 280.613 385.020, 277.849 386.370, 274.609 388.013 C 262.462 394.172, 250.206 390.418, 247.626 379.748 C 246.664 375.766, 250.050 369.679, 254.368 367.630 C 256.275 366.725, 259.917 365.699, 262.460 365.350 C 267.662 364.637, 270.288 361.995, 269.382 358.385 C 268.470 354.753, 271.617 345.741, 274.893 342.602 C 277.353 340.246, 277.705 339.354, 276.954 337.380 C 274.843 331.826, 281.776 324.744, 291.241 322.789 C 294.801 322.054, 297 321.087, 297 320.258 C 297 316.828, 293.540 302.525, 290.486 293.329 C 287.018 282.885, 281.965 271.850, 279.233 268.750 C 277.389 266.659, 269.280 266.493, 261.500 268.388 M 41.667 275.667 C 40.478 276.855, 40.961 281.499, 42.501 283.698 C 43.327 284.877, 45.354 286.139, 47.006 286.501 C 48.658 286.864, 52.200 288.668, 54.877 290.509 L 59.745 293.858 59.880 287.664 L 60.014 281.469 54.130 278.235 C 48.653 275.224, 43.227 274.106, 41.667 275.667 M 154 277.963 C 154 278.493, 151.249 281.868, 147.887 285.462 C 138.776 295.201, 125.427 303.540, 116 305.382 C 112.912 305.985, 112.153 306.797, 109.547 312.283 C 107.922 315.702, 106.401 318.901, 106.166 319.392 C 105.486 320.811, 119.461 319.078, 125.526 316.991 C 133.471 314.258, 141.072 308.826, 149.016 300.205 L 156 292.625 156 284.813 C 156 280.271, 155.581 277, 155 277 C 154.450 277, 154 277.434, 154 277.963 M 36.250 293.031 C 32.854 294.396, 33.527 297.439, 38.088 301.343 C 44.821 307.107, 56.066 308.679, 57.282 304.028 C 57.913 301.618, 52.680 296.668, 46.565 293.890 C 42.101 291.863, 39.662 291.660, 36.250 293.031 M 321.556 314.384 C 321.611 328.370, 321.682 328.833, 324.220 331.850 C 328.132 336.499, 329.455 341.296, 327.769 344.722 C 326.586 347.127, 326.625 348.036, 328.066 351.500 C 328.982 353.700, 330.078 356.400, 330.503 357.500 C 331.230 359.382, 331.320 359.352, 332.038 357 C 333.211 353.155, 333.131 333.074, 331.916 326.504 C 330.587 319.313, 325.564 305.301, 323.224 302.258 C 321.569 300.106, 321.502 300.589, 321.556 314.384 M 212.175 317.289 C 210.815 318.928, 208.967 327, 209.951 327 C 211.546 327, 213.758 323.315, 214.302 319.750 C 214.887 315.918, 214.084 314.989, 212.175 317.289 M 210.740 329.750 C 208.438 332.315, 207.349 339, 209.234 339 C 211.727 339, 214 335.505, 214 331.671 C 214 327.623, 213.116 327.102, 210.740 329.750 M 289.600 330.478 C 282.547 332.991, 281.849 337, 288.465 337 C 291.718 337, 293.187 337.482, 293.880 338.776 C 295.456 341.720, 293.415 343.999, 289.200 344.004 C 284.922 344.008, 279.685 346.871, 277.872 350.196 C 277.181 351.463, 276.541 355.121, 276.449 358.323 C 276.188 367.383, 272.376 371.317, 262.678 372.537 C 257.111 373.238, 253.883 375.835, 254.699 378.956 C 256.212 384.741, 265.416 385.761, 273.151 381.002 C 275.830 379.354, 279.477 377.891, 281.255 377.752 C 284.056 377.534, 284.722 377.968, 286.242 381 C 288.137 384.779, 288.558 392.401, 287.087 396.272 C 285.930 399.315, 280.362 404.594, 275.359 407.392 C 270.477 410.122, 269.808 413.532, 273.479 416.980 C 275.308 418.698, 277.116 419.365, 279.746 419.290 C 284.935 419.143, 288.948 414.493, 291.954 405.143 C 294.385 397.582, 295.948 395.882, 298.513 398.011 C 300.400 399.577, 300.416 404.068, 298.551 408.532 C 296.656 413.068, 297.933 412.923, 302.281 408.111 C 305.774 404.245, 307.690 400.357, 306.626 399.293 C 305.540 398.207, 308.102 395, 310.057 395 C 313.010 395, 314.585 399.186, 313.258 403.510 C 312.039 407.483, 312.683 407.824, 316.192 405.064 C 319.861 402.178, 324.681 392.354, 325.990 385.094 C 327.652 375.873, 325.452 362.100, 320.780 352.485 C 318.829 348.469, 318.764 347.745, 320.013 343.960 C 321.601 339.149, 320.973 337.631, 315.995 334.241 C 308.844 329.372, 297.316 327.728, 289.600 330.478 M 210.655 341.829 C 208.920 343.746, 208.359 349, 209.889 349 C 210.378 349, 211.796 348.176, 213.040 347.169 C 214.791 345.751, 215.150 344.735, 214.632 342.669 C 213.844 339.529, 212.914 339.333, 210.655 341.829 M 212.661 351.052 C 210.318 352.895, 209.995 353.713, 210.563 356.365 C 211.447 360.497, 211.525 360.541, 214.469 358.612 C 217.007 356.949, 217.568 354.297, 216.145 350.687 C 215.470 348.977, 215.272 348.998, 212.661 351.052 M 215.118 361.876 C 213.085 363.440, 212.874 364.123, 213.680 366.541 C 214.861 370.082, 215.894 370.418, 218.777 368.202 C 220.813 366.636, 220.935 366.111, 219.929 363.226 C 218.629 359.497, 218.324 359.411, 215.118 361.876 M 219.250 371.674 C 216.551 373.557, 216.469 374.752, 218.827 377.817 C 220.420 379.887, 220.898 380.004, 223.305 378.907 C 226.429 377.484, 226.536 376.937, 224.474 372.950 C 222.740 369.596, 222.361 369.504, 219.250 371.674 M 225.750 381.572 C 222.453 383.361, 222.384 383.948, 225.073 387.365 C 227.408 390.334, 228.786 390.608, 231.477 388.640 C 233.277 387.325, 233.264 387.163, 231.087 383.640 C 229.849 381.638, 228.761 380.018, 228.668 380.040 C 228.576 380.062, 227.262 380.751, 225.750 381.572 M 232.441 392.446 C 230.555 393.851, 230.586 393.979, 233.540 396.967 C 236.341 399.800, 236.834 399.954, 239.790 398.923 C 241.556 398.308, 243 397.535, 243 397.207 C 243 395.869, 237.512 391, 236.004 391 C 235.112 391, 233.509 391.651, 232.441 392.446 M 244.250 401.220 C 243.012 401.817, 242 402.650, 242 403.071 C 242 404.417, 248.802 408.095, 252.209 408.592 C 255.094 409.013, 259.255 407.696, 257.971 406.769 C 256.759 405.893, 246.846 400.008, 246.684 400.068 C 246.583 400.105, 245.488 400.624, 244.250 401.220 M 202.761 435.012 C 191.233 437.413, 185.091 439.487, 175.871 444.091 C 152.466 455.779, 127.645 486.828, 119.984 514 C 117.943 521.240, 116.015 542, 117.383 542 C 117.752 542, 119.644 540.552, 121.588 538.783 C 130.404 530.761, 143.039 525.548, 165.831 520.527 C 189.341 515.348, 200.391 505.634, 210.031 481.669 C 214.776 469.871, 217.756 457.032, 218.621 444.654 C 219.532 431.615, 219.414 431.544, 202.761 435.012 M 226.244 443.596 C 226.650 451.255, 227.494 455.540, 229.968 462.500 C 236.668 481.356, 249.368 501.429, 259.131 508.596 C 268.818 515.707, 282.675 519.974, 296.138 519.992 C 303.933 520.003, 327.202 524.672, 333.634 527.517 C 336.554 528.808, 341.031 531.301, 343.583 533.057 L 348.222 536.249 347.489 530.874 C 346.497 523.595, 343.486 512.300, 340.979 506.450 C 334.900 492.270, 322.218 475.660, 307.647 462.795 C 285.439 443.189, 267.996 436.015, 238.609 434.400 L 225.718 433.692 226.244 443.596" stroke="none" fill="#060606" fill-rule="evenodd"/><path d="M -0 279.501 L -0 559.001 842.750 558.751 L 1685.500 558.500 1685.752 279.250 L 1686.004 0 843.002 0 L 0 0 -0 279.501 M 0.493 280 C 0.493 433.725, 0.609 496.612, 0.750 419.750 C 0.891 342.887, 0.891 217.112, 0.750 140.250 C 0.609 63.387, 0.493 126.275, 0.493 280 M 219.698 7.096 C 208.249 9.790, 195.961 19.439, 187.554 32.339 C 183.637 38.349, 181.973 40.061, 179.554 40.571 C 174.468 41.643, 167.157 46.106, 162.871 50.756 C 160.642 53.174, 158.713 55.005, 158.583 54.826 C 158.453 54.647, 157.352 52.844, 156.135 50.820 C 147.575 36.578, 131.294 35.117, 118.603 47.452 C 108.269 57.495, 101.158 76.660, 100.807 95.415 C 100.680 102.163, 100.274 104.008, 98.347 106.569 C 92.691 114.088, 86 133.583, 86 142.541 C 86 146.683, 85.919 146.783, 81.684 147.849 C 74.460 149.668, 71.762 154.434, 74.970 159.709 C 77.156 163.304, 84.977 168.165, 92.500 170.604 C 98.664 172.603, 100 174.207, 100 179.609 C 100 186.984, 99.779 187.098, 91.692 183.907 C 77.853 178.446, 70 180.898, 70 190.679 C 70 198.257, 77.006 208.722, 84.912 212.953 C 86.060 213.567, 87 214.969, 87 216.068 C 87 222.569, 99.396 238.278, 112.154 247.946 C 121.250 254.838, 135.735 262.606, 145 265.560 C 148.025 266.524, 150.639 267.419, 150.809 267.548 C 150.978 267.678, 150.437 269.412, 149.605 271.402 C 146.526 278.772, 132.533 291.131, 121.700 296.049 C 115.099 299.046, 114.326 298.742, 113.767 292.926 C 113.228 287.321, 110.413 282.667, 107.278 282.197 C 106.054 282.014, 104.575 280.384, 103.530 278.066 C 101.369 273.274, 92.856 264.860, 87.264 261.988 C 84.880 260.764, 80.291 259.585, 76.764 259.292 C 69.269 258.669, 65.681 256.772, 53.670 247.082 C 43.436 238.826, 38.715 236.197, 32.628 235.363 C 26.066 234.463, 21.127 236.453, 19.347 240.713 C 16.587 247.318, 20.179 255.247, 30.086 264.419 C 35.886 269.789, 36.186 270.284, 34.991 272.517 C 33.502 275.298, 33.238 279.376, 34.293 283.261 C 34.922 285.573, 34.660 286.198, 32.689 287.096 C 30.711 287.997, 29.558 287.676, 25.472 285.084 C 9.273 274.811, -2.234 292.227, 10.896 307.144 C 13.037 309.577, 16.974 312.746, 19.645 314.186 C 25.287 317.230, 37.025 321, 40.859 321 C 42.315 321, 45.747 322.593, 48.485 324.539 C 55.410 329.463, 62.638 331.392, 71.621 330.712 C 77.886 330.238, 79.070 330.420, 80.575 332.083 C 83.534 335.352, 89.974 334.666, 95.432 330.500 C 99.689 327.250, 100.535 326.999, 107.259 326.983 C 123.105 326.945, 137.238 321.386, 148.663 310.699 L 154.888 304.875 154.747 325.188 C 154.508 359.816, 159.495 378.673, 174.259 398.961 C 179.759 406.519, 191.362 418.520, 198.274 423.801 L 203.048 427.447 194.774 429.522 C 176.555 434.091, 162.234 442.199, 148.396 455.780 C 135.016 468.913, 125.476 482.456, 118.307 498.500 C 112.365 511.798, 110.522 520.306, 110.510 534.500 C 110.501 545.020, 110.776 547.016, 112.736 550.682 C 113.965 552.982, 115.346 555.096, 115.804 555.379 C 116.263 555.662, 118.406 553.450, 120.569 550.464 C 122.731 547.477, 126.664 543.383, 129.309 541.364 C 134.978 537.038, 154.525 529.630, 164.653 527.970 C 175.384 526.210, 183.378 523.240, 191.243 518.090 C 199.565 512.642, 204.025 508.013, 209.268 499.382 C 213.166 492.965, 220.554 475.479, 221.621 470.146 C 222.237 467.064, 224 465.713, 224 468.323 C 224 470.792, 233.140 488.463, 238.702 496.747 C 245.934 507.518, 254.699 515.633, 264.058 520.219 C 273.618 524.905, 280.904 526.642, 294.315 527.433 C 307.941 528.237, 326.219 532.064, 333.108 535.555 C 336.014 537.027, 340.932 540.655, 344.036 543.616 C 347.141 546.577, 350.130 549, 350.680 549 C 352.446 549, 354.236 543.681, 354.748 536.910 C 356.362 515.557, 342.372 486.112, 320.193 464.178 C 294.963 439.229, 272.654 428.640, 242.107 427.118 L 229.714 426.500 228.372 422 C 226.939 417.193, 226.618 410.162, 227.606 405.221 L 228.212 402.191 233.356 406.126 C 240.705 411.747, 252.440 417.407, 260 418.976 C 264.225 419.852, 267.597 421.271, 269.633 423.029 C 275.358 427.971, 285.164 427.647, 290.139 422.352 C 291.354 421.059, 293.410 420, 294.706 420 C 297.968 420, 303.142 417.678, 305.311 415.241 C 306.741 413.636, 307.939 413.316, 310.995 413.726 C 320.694 415.027, 330.666 401.791, 333.039 384.468 C 333.639 380.085, 335.230 372.900, 336.576 368.500 C 345.063 340.743, 338.904 308.414, 320.865 286.027 C 315.680 279.593, 315.803 279.344, 322.775 282.143 C 329.331 284.774, 331.451 280.495, 328.070 271.458 C 324.362 261.546, 325.007 259.201, 336.687 240.163 C 340.870 233.345, 345.674 224.557, 347.364 220.633 C 350.063 214.367, 350.429 212.406, 350.378 204.500 C 350.336 197.984, 349.723 193.784, 348.160 189.282 C 346.972 185.861, 346 182.824, 346 182.532 C 346 182.239, 348.489 182, 351.532 182 C 354.575 182, 358.625 181.348, 360.532 180.551 C 363.419 179.345, 364 178.589, 364 176.039 C 364 173.424, 363.206 172.467, 358.585 169.511 C 348.726 163.205, 347.482 159.933, 346.031 136.500 C 344.817 116.889, 343.247 108.402, 339.442 100.869 C 336.184 94.421, 325.073 83.204, 319.452 80.689 L 315.404 78.879 322.233 71.829 C 333.247 60.460, 341.096 41.704, 339.366 30.886 C 338.478 25.333, 336.792 24.311, 332.771 26.888 C 316.816 37.115, 299.395 34.408, 259 15.424 C 239.854 6.426, 230.746 4.496, 219.698 7.096 M 215.220 16.972 C 208.234 20.278, 199.556 27.936, 194.995 34.821 C 191.746 39.726, 191.228 42, 193.359 42 C 195.190 42, 203.203 49.142, 204.873 52.262 C 206.060 54.481, 207.217 54.894, 215.033 55.897 C 244.360 59.658, 269.885 72.012, 290.375 92.362 C 301.075 102.989, 311.318 117.762, 317.149 130.976 C 324.156 146.854, 329.991 173.893, 329.993 190.500 C 329.996 208.425, 322.912 244.268, 316.109 260.744 L 313.118 267.988 316.404 270.494 C 320.544 273.653, 321.195 273.642, 319.975 270.435 C 318.236 265.861, 318.857 257.846, 321.366 252.500 C 322.656 249.750, 327.003 242.100, 331.025 235.500 C 335.048 228.900, 339.388 220.921, 340.669 217.770 C 343.976 209.639, 343.808 200.437, 340.111 187.204 C 336.556 174.481, 336.922 173.738, 346.301 174.633 L 352.500 175.224 348.814 172.092 C 342.141 166.422, 340.086 160.456, 338.942 143.435 C 336.496 107.036, 334.080 100.791, 317.493 87.994 C 312.011 83.765, 309 79.699, 309 76.524 C 309 75.658, 311.652 72.099, 314.893 68.615 C 322.613 60.317, 325.135 56.382, 329.937 45.147 C 333.035 37.898, 333.544 35.981, 332.213 36.561 C 331.271 36.971, 328.025 38.188, 325 39.265 C 312.118 43.852, 290.717 38.722, 257 22.965 C 240.035 15.037, 236.719 14.013, 228 14.006 C 222.861 14.003, 220.185 14.624, 215.220 16.972 M 176.500 19.037 C 168.997 21.361, 165.078 28.078, 168.960 31.960 L 171.093 34.093 176.418 31.047 C 179.347 29.371, 182.406 28, 183.217 28 C 185.085 28, 188 24.827, 188 22.794 C 188 19.355, 181.904 17.364, 176.500 19.037 M 137.193 19.704 C 135.925 19.952, 134.391 21.242, 133.785 22.573 C 132.887 24.543, 133.019 25.364, 134.496 26.996 C 135.494 28.098, 136.973 29, 137.783 29 C 138.594 29, 141.699 30.397, 144.684 32.105 C 149.897 35.088, 150.187 35.141, 152.055 33.450 C 155.590 30.251, 154.200 25.500, 148.763 22.197 C 145.121 19.986, 140.670 19.027, 137.193 19.704 M 176.250 23.973 C 173.798 25.086, 172 26.586, 172 27.519 C 172 28.917, 172.381 28.865, 174.811 27.135 C 176.357 26.034, 178.829 24.830, 180.304 24.460 C 181.779 24.090, 182.738 23.385, 182.434 22.893 C 181.676 21.666, 181.118 21.764, 176.250 23.973 M 140.500 25.222 C 142.150 25.807, 144.694 27.121, 146.154 28.143 C 149.170 30.253, 150 30.435, 150 28.985 C 150 27.269, 143.671 24.003, 140.500 24.083 L 137.500 24.158 140.500 25.222 M 133.994 45.959 C 119.794 50.138, 108.787 69.943, 107.323 93.943 C 106.406 108.989, 111.356 125.119, 118.584 130.632 C 123.294 134.224, 129.471 134.821, 134.642 132.183 C 139.906 129.497, 146 122.691, 146 119.497 C 146 116.457, 145.691 116.429, 142.029 119.136 C 140.144 120.530, 137.662 121.273, 134.889 121.273 C 131.316 121.273, 130.131 120.720, 127.459 117.804 C 124.029 114.061, 121.375 105.626, 122.375 101.644 C 122.738 100.194, 124.436 98.656, 126.898 97.546 L 130.839 95.769 127.846 90.904 C 125.812 87.599, 125.065 85.371, 125.515 83.954 C 126.450 81.008, 131.780 75.165, 135.099 73.449 C 138.320 71.783, 144.286 71.547, 146.962 72.980 C 148.556 73.833, 149.143 73.135, 151.508 67.570 L 154.223 61.181 151.375 55.948 C 147.266 48.398, 139.964 44.202, 133.994 45.959 M 177 48.587 C 168.588 52.215, 159.187 64.645, 154.372 78.510 C 151.866 85.727, 151.592 87.855, 151.549 100.500 C 151.508 112.069, 151.844 115.427, 153.479 119.838 C 157.026 129.404, 164.492 136.016, 171.718 135.990 C 175.862 135.976, 184.029 131.742, 188 127.550 L 191.500 123.854 188.500 124.642 C 178.688 127.218, 171.776 121.344, 170.339 109.211 C 169.396 101.256, 170.249 99.364, 175.068 98.718 C 177.321 98.415, 179.397 97.936, 179.680 97.653 C 179.963 97.370, 179.521 94.185, 178.698 90.576 C 177.270 84.317, 177.293 83.897, 179.189 81.487 C 185.333 73.676, 197.395 74.649, 201.224 83.266 C 202.015 85.045, 203.157 87.625, 203.763 89 C 204.661 91.038, 204.877 89.622, 204.932 81.339 C 205.099 56.329, 192.717 41.811, 177 48.587 M 210.671 66.300 C 211.127 68.610, 211.488 75.900, 211.474 82.500 C 211.442 96.919, 209.846 103.736, 203.456 116.750 C 194.045 135.912, 179.051 145.580, 165.146 141.451 C 160.113 139.956, 153.567 134.819, 151.252 130.547 C 150.250 128.699, 149.966 128.798, 145.986 132.394 C 140.998 136.900, 132.696 140.979, 128.500 140.985 C 122.987 140.992, 117.830 138.884, 113.422 134.821 C 109.069 130.809, 103 120.338, 103 116.840 C 103 113.409, 101.283 114.978, 98.673 120.794 C 95.765 127.273, 93.037 137.837, 93.015 142.705 C 93.001 145.636, 93.320 145.962, 96.750 146.523 C 100.785 147.184, 108.812 148.765, 127 152.480 C 145.324 156.223, 152.097 156.505, 161.500 153.917 C 172.343 150.932, 175.412 150.882, 175.811 153.682 C 176.633 159.455, 154.705 163.621, 136.906 161.072 C 132.283 160.410, 121.381 158.323, 112.679 156.434 C 96.027 152.820, 89.367 152.279, 84.104 154.114 C 80.178 155.482, 80.495 156.718, 85.665 160.208 C 94.763 166.348, 117.572 170.609, 136.723 169.746 C 156.649 168.848, 170.160 165.140, 181.698 157.404 C 185.310 154.982, 189.001 153, 189.900 153 C 193.054 153, 198.586 157.822, 201.529 163.136 C 204.138 167.847, 204.498 169.480, 204.487 176.547 C 204.476 183.606, 204.071 185.414, 201.195 191.256 C 194.013 205.844, 181.012 211.832, 159 210.689 C 140.556 209.731, 123.310 205.106, 100.365 194.963 C 84.619 188.003, 80.157 186.625, 78.316 188.152 C 76.153 189.948, 76.815 194.448, 79.854 198.600 C 83.746 203.920, 85.706 205.517, 91.271 207.902 C 96.754 210.252, 98.224 212.632, 95.445 214.664 C 93.623 215.996, 93.621 216.141, 95.374 219.397 C 98.777 225.716, 106.932 234.805, 114.894 241.153 C 141.426 262.309, 173.306 268.316, 203.895 257.925 C 214.476 254.331, 223.661 248.195, 232.684 238.694 C 252.414 217.919, 260.801 194.014, 255.500 173.661 C 253.816 167.195, 253.497 158, 254.958 158 C 256.383 158, 260.655 165.855, 262.028 171 C 262.688 173.475, 263.404 176.105, 263.619 176.844 C 263.873 177.717, 265.584 176.636, 268.502 173.759 C 273.950 168.388, 282.760 163.726, 286.613 164.175 C 293.311 164.955, 295.562 176.953, 290.599 185.421 L 287.814 190.173 289.931 192.427 C 294.531 197.323, 294.517 204.620, 289.892 212.459 C 288.315 215.132, 288.104 216.325, 288.935 217.878 C 290.586 220.963, 290.254 222.404, 286.684 227.638 C 284.860 230.312, 282.663 234.300, 281.802 236.500 C 280.444 239.968, 279.777 240.540, 276.789 240.800 C 271.007 241.304, 262.170 237.301, 256.470 231.596 L 251.379 226.500 246.439 233.388 C 238.468 244.503, 226.332 255.156, 215.652 260.413 C 201.562 267.349, 194.067 269.112, 176.500 269.625 C 161.621 270.059, 161.504 270.080, 162 272.281 C 162.565 274.789, 162.601 293.772, 162.098 324 C 161.395 366.235, 168.633 385.951, 193.711 410.106 C 206.217 422.151, 213.936 427, 220.605 427 C 222.876 427, 222.889 426.937, 221.456 422.874 C 219.625 417.686, 219.605 408.074, 221.410 401.294 L 222.796 396.088 218.773 390.794 C 208.121 376.775, 201.745 357.038, 201.719 338 C 201.691 318.284, 207.069 304.028, 220.152 289.137 C 236.408 270.634, 254.516 260.079, 270.111 260.015 C 273.377 260.001, 273.679 259.771, 273.266 257.609 C 272.933 255.872, 273.806 254.113, 276.457 251.179 C 280.551 246.648, 288.807 241, 291.338 241 C 293.604 241, 300.305 247.875, 304.631 254.638 C 306.591 257.701, 308.544 259.823, 308.973 259.353 C 309.792 258.456, 313.700 246.636, 316.516 236.539 C 318.888 228.034, 322.995 198.774, 322.978 190.500 C 322.964 183.232, 321.245 170.563, 318.638 158.500 C 307.455 106.762, 266.966 69.776, 213.671 62.615 L 209.841 62.100 210.671 66.300 M 1240 80.685 C 1238.625 80.955, 1236.487 82.114, 1235.250 83.262 L 1233 85.349 1233 246.564 C 1233 403.800, 1233.047 407.837, 1234.911 410.139 L 1236.823 412.500 1337.161 412.780 C 1392.348 412.933, 1438.500 412.815, 1439.722 412.517 C 1440.945 412.220, 1442.857 410.996, 1443.972 409.799 C 1445.894 407.736, 1446 406.351, 1446 383.266 L 1446 358.909 1443.545 356.455 L 1441.091 354 1368.045 354 L 1295 354 1295 220.056 L 1295 86.112 1292.588 83.306 L 1290.176 80.500 1266.338 80.348 C 1253.227 80.264, 1241.375 80.416, 1240 80.685 M 1397.750 80.664 C 1394.921 81.444, 1395.677 84.162, 1401.349 93.600 C 1404.290 98.495, 1429.265 140.595, 1456.849 187.157 L 1507 271.813 1507 338.860 C 1507 386.842, 1507.324 406.616, 1508.138 408.403 C 1508.764 409.777, 1510.631 411.373, 1512.287 411.950 C 1514.050 412.565, 1524.782 413, 1538.181 413 C 1564.887 413, 1567.213 412.495, 1568.925 406.330 C 1569.627 403.803, 1569.991 380.038, 1569.996 336.500 L 1570.003 270.500 1578.131 257 C 1582.601 249.575, 1601.336 218.075, 1619.765 187 C 1638.193 155.925, 1659.510 120.028, 1667.135 107.229 C 1674.761 94.430, 1681 83.345, 1681 82.596 C 1681 81.846, 1679.987 80.962, 1678.750 80.630 C 1674.366 79.456, 1617.680 80.049, 1614.142 81.306 C 1611.344 82.301, 1609.914 84.085, 1605.569 92 C 1602.701 97.225, 1586.467 126.820, 1569.495 157.767 C 1552.522 188.715, 1538.267 213.667, 1537.818 213.218 C 1537.369 212.769, 1521.502 184.074, 1502.557 149.451 C 1483.613 114.828, 1467.027 85.150, 1465.699 83.500 L 1463.286 80.500 1431.393 80.340 C 1413.852 80.252, 1398.713 80.398, 1397.750 80.664 M 469 83 C 467.016 84.984, 467 86.333, 467 246.845 L 467 408.690 469.103 410.595 C 471.036 412.346, 473.275 412.524, 496.777 412.799 C 525.772 413.138, 527.391 412.854, 528.979 407.135 C 529.597 404.910, 529.991 383.830, 529.994 352.772 L 530 302.044 593.087 301.772 L 656.174 301.500 658.587 298.694 C 660.986 295.904, 661 295.758, 661 272.899 L 661 249.909 658.545 247.455 L 656.091 245 593.045 245 L 530 245 530 192 L 530 139 608.750 138.994 C 659.857 138.991, 688.806 138.626, 691.221 137.956 C 697.814 136.125, 698 135.339, 698 109.412 C 698 87.514, 697.889 86.128, 695.927 83.635 L 693.855 81 582.427 81 C 472.333 81, 470.976 81.024, 469 83 M 747.861 82.912 L 745.500 84.823 745.237 245.162 C 745.047 360.698, 745.283 406.250, 746.081 408.185 C 747.840 412.448, 751.324 413, 776.500 413 C 800.449 413, 805.195 412.372, 807.021 408.961 C 808.100 406.944, 808.453 88.343, 807.379 85.545 C 805.834 81.518, 802.220 81, 775.660 81 C 752.104 81, 750.047 81.141, 747.861 82.912 M 874.455 83.455 L 872 85.909 872 247 L 872 408.091 874.465 410.556 L 876.930 413.021 1015.937 412.760 L 1154.945 412.500 1157.222 410.222 L 1159.500 407.944 1159.500 246.886 L 1159.500 85.827 1156.694 83.413 L 1153.888 81 1128.555 81 C 1105.102 81, 1103.046 81.142, 1100.861 82.912 L 1098.500 84.823 1098 196.116 L 1097.500 307.410 1035.392 218.955 C 1001.232 170.305, 965.987 120.032, 957.069 107.238 C 946.518 92.101, 939.850 83.457, 937.977 82.488 C 935.623 81.271, 929.810 81, 906.004 81 L 876.909 81 874.455 83.455 M 187.744 161.426 C 186.117 162.634, 186.103 163.001, 187.547 166.459 C 188.969 169.862, 188.963 170.408, 187.475 172.678 C 185.696 175.393, 180.428 178, 176.721 178 C 174.023 178, 170 174.644, 170 172.394 C 170 171.409, 169.378 171.048, 168.250 171.380 C 150.589 176.574, 131.962 178.244, 117 175.973 C 113.425 175.431, 108.590 174.704, 106.255 174.358 L 102.010 173.729 103.046 176.703 C 103.743 178.702, 103.760 181.113, 103.098 184.061 C 102.556 186.473, 102.200 188.486, 102.306 188.536 C 113.027 193.540, 121.005 196.457, 132.304 199.508 C 140.399 201.693, 141.148 201.748, 141.617 200.192 C 143.165 195.060, 145.617 191.880, 149.464 190.018 C 154.223 187.714, 158.183 187.522, 162.500 189.385 C 165.301 190.594, 165.749 190.469, 169.242 187.501 C 176.742 181.129, 187.956 180.356, 194.229 185.778 C 195.779 187.118, 196.038 187.077, 196.729 185.386 C 197.153 184.349, 197.500 180.575, 197.500 177 C 197.500 166.933, 192.049 158.232, 187.744 161.426 M 177.750 167.685 C 172.641 170.276, 171.786 172.280, 175.047 174.025 C 177.796 175.496, 184.374 172.385, 184.798 169.412 C 185.336 165.646, 182.934 165.057, 177.750 167.685 M 280 170.735 C 278.075 171.664, 273.688 175.212, 270.250 178.620 C 264.306 184.512, 263.999 185.052, 263.985 189.657 C 263.965 196.359, 261.489 206.254, 257.860 214.142 C 254.852 220.679, 254.830 220.840, 256.492 224.342 C 258.349 228.255, 263.107 232.311, 268.468 234.551 C 272.285 236.146, 277 236.480, 277 235.155 C 277 234.690, 278.825 231.486, 281.056 228.035 C 284.745 222.327, 285.014 221.478, 284.026 218.645 C 283.078 215.925, 283.324 214.799, 285.970 209.751 C 289.901 202.252, 289.908 198.617, 286 195.187 C 282.311 191.950, 282.315 190.921, 286.039 184 C 289.255 178.025, 289.625 175.466, 287.839 171.547 C 286.488 168.580, 284.822 168.407, 280 170.735 M 933 266.286 L 933 358 997.088 358 L 1061.176 358 1056.753 351.750 C 1054.320 348.313, 1026.086 307.700, 994.010 261.500 C 961.934 215.300, 935.085 176.841, 934.345 176.036 C 933.217 174.808, 933 189.392, 933 266.286 M 175.182 187.519 C 173.357 188.312, 170.497 189.934, 168.825 191.124 C 166.138 193.038, 165.266 193.169, 161.278 192.256 C 153.905 190.569, 147.480 193.506, 143.892 200.203 C 142.571 202.670, 147.631 203.500, 164 203.500 C 176.240 203.500, 177.920 203.280, 182 201.144 C 187.167 198.439, 194 192.233, 194 190.246 C 194 186.620, 181.442 184.800, 175.182 187.519 M 194 212.511 C 185.300 218.500, 175.042 221.292, 161.303 221.412 C 151.940 221.493, 151.325 221.614, 153.773 222.897 C 159.445 225.869, 178.031 223.591, 189.554 218.511 C 194.620 216.278, 202 210.577, 202 208.896 C 202 207.324, 200.649 207.934, 194 212.511 M 25.710 243.313 C 23.664 248.644, 34.157 261.105, 44.854 266.048 C 48.509 267.737, 53.686 270.244, 56.357 271.619 C 59.029 272.994, 61.292 273.980, 61.387 273.810 C 62.489 271.832, 65 265.720, 65 265.014 C 65 264.509, 62.862 262.643, 60.250 260.866 C 57.638 259.090, 52.339 255.042, 48.476 251.871 C 44.612 248.699, 39.437 245.191, 36.976 244.074 C 31.854 241.751, 26.450 241.386, 25.710 243.313 M 285.180 252.578 C 282.881 254.546, 281 256.622, 281 257.192 C 281 257.762, 283.047 261.513, 285.550 265.528 C 293.504 278.291, 299.886 295.745, 302.867 312.892 L 304.500 322.283 308.967 323.600 C 312.443 324.625, 313.621 324.649, 314.279 323.708 C 315.715 321.658, 314.234 299.058, 312.136 291 C 309.713 281.692, 304.841 269.246, 300.791 262.017 C 297.017 255.280, 292.059 249, 290.513 249 C 289.879 249, 287.479 250.610, 285.180 252.578 M 74.181 266.755 C 71.094 267.290, 68.325 273.837, 67.137 283.403 C 66.017 292.422, 67.050 298.812, 70.016 301.214 C 75.965 306.031, 83.343 299.643, 85.526 287.786 C 86.953 280.032, 92 280.633, 92 288.557 C 92 296.642, 87.231 304.742, 80.573 307.965 C 75.370 310.483, 72.455 310.526, 67.799 308.152 C 64.198 306.317, 64.167 306.319, 63.009 308.483 C 62.368 309.681, 60.474 311.470, 58.801 312.458 C 49.674 317.850, 28.507 307.548, 26.476 296.726 C 25.433 291.162, 16.055 286.819, 13.009 290.489 C 11.164 292.713, 12.547 297.994, 16.105 302.311 C 20.111 307.171, 27.022 310.613, 38.740 313.586 C 44.781 315.118, 50.344 317.324, 54.253 319.738 C 59.907 323.228, 60.901 323.500, 67.993 323.500 C 74.697 323.500, 76.161 323.154, 79.888 320.690 C 82.226 319.145, 84.895 318.024, 85.819 318.200 C 88.038 318.623, 88.507 322.334, 86.548 323.960 C 84.413 325.732, 84.611 327, 87.022 327 C 89.656 327, 97.089 320.108, 100.857 314.173 C 105.644 306.633, 108.536 293.846, 106.235 290.400 C 105.831 289.795, 104.481 288.763, 103.235 288.107 C 101.990 287.451, 99.800 285.021, 98.369 282.707 C 91.388 271.420, 82.203 265.362, 74.181 266.755 M 261.500 268.388 C 253.102 270.433, 246.827 274.154, 239.409 281.489 C 226.116 294.632, 220.234 311.660, 221.288 333.942 C 221.927 347.418, 224.266 356.596, 229.941 367.882 C 237.297 382.514, 248.024 393.592, 260.796 399.749 L 268.092 403.266 271.669 401.383 C 278.580 397.745, 281 394.689, 281 389.599 C 281 387.069, 280.887 385.006, 280.750 385.013 C 280.613 385.020, 277.849 386.370, 274.609 388.013 C 262.462 394.172, 250.206 390.418, 247.626 379.748 C 246.664 375.766, 250.050 369.679, 254.368 367.630 C 256.275 366.725, 259.917 365.699, 262.460 365.350 C 267.662 364.637, 270.288 361.995, 269.382 358.385 C 268.470 354.753, 271.617 345.741, 274.893 342.602 C 277.353 340.246, 277.705 339.354, 276.954 337.380 C 274.843 331.826, 281.776 324.744, 291.241 322.789 C 294.801 322.054, 297 321.087, 297 320.258 C 297 316.828, 293.540 302.525, 290.486 293.329 C 287.018 282.885, 281.965 271.850, 279.233 268.750 C 277.389 266.659, 269.280 266.493, 261.500 268.388 M 41.667 275.667 C 40.478 276.855, 40.961 281.499, 42.501 283.698 C 43.327 284.877, 45.354 286.139, 47.006 286.501 C 48.658 286.864, 52.200 288.668, 54.877 290.509 L 59.745 293.858 59.880 287.664 L 60.014 281.469 54.130 278.235 C 48.653 275.224, 43.227 274.106, 41.667 275.667 M 154 277.963 C 154 278.493, 151.249 281.868, 147.887 285.462 C 138.776 295.201, 125.427 303.540, 116 305.382 C 112.912 305.985, 112.153 306.797, 109.547 312.283 C 107.922 315.702, 106.401 318.901, 106.166 319.392 C 105.486 320.811, 119.461 319.078, 125.526 316.991 C 133.471 314.258, 141.072 308.826, 149.016 300.205 L 156 292.625 156 284.813 C 156 280.271, 155.581 277, 155 277 C 154.450 277, 154 277.434, 154 277.963 M 36.250 293.031 C 32.854 294.396, 33.527 297.439, 38.088 301.343 C 44.821 307.107, 56.066 308.679, 57.282 304.028 C 57.913 301.618, 52.680 296.668, 46.565 293.890 C 42.101 291.863, 39.662 291.660, 36.250 293.031 M 321.556 314.384 C 321.611 328.370, 321.682 328.833, 324.220 331.850 C 328.132 336.499, 329.455 341.296, 327.769 344.722 C 326.586 347.127, 326.625 348.036, 328.066 351.500 C 328.982 353.700, 330.078 356.400, 330.503 357.500 C 331.230 359.382, 331.320 359.352, 332.038 357 C 333.211 353.155, 333.131 333.074, 331.916 326.504 C 330.587 319.313, 325.564 305.301, 323.224 302.258 C 321.569 300.106, 321.502 300.589, 321.556 314.384 M 212.175 317.289 C 210.815 318.928, 208.967 327, 209.951 327 C 211.546 327, 213.758 323.315, 214.302 319.750 C 214.887 315.918, 214.084 314.989, 212.175 317.289 M 210.740 329.750 C 208.438 332.315, 207.349 339, 209.234 339 C 211.727 339, 214 335.505, 214 331.671 C 214 327.623, 213.116 327.102, 210.740 329.750 M 289.600 330.478 C 282.547 332.991, 281.849 337, 288.465 337 C 291.718 337, 293.187 337.482, 293.880 338.776 C 295.456 341.720, 293.415 343.999, 289.200 344.004 C 284.922 344.008, 279.685 346.871, 277.872 350.196 C 277.181 351.463, 276.541 355.121, 276.449 358.323 C 276.188 367.383, 272.376 371.317, 262.678 372.537 C 257.111 373.238, 253.883 375.835, 254.699 378.956 C 256.212 384.741, 265.416 385.761, 273.151 381.002 C 275.830 379.354, 279.477 377.891, 281.255 377.752 C 284.056 377.534, 284.722 377.968, 286.242 381 C 288.137 384.779, 288.558 392.401, 287.087 396.272 C 285.930 399.315, 280.362 404.594, 275.359 407.392 C 270.477 410.122, 269.808 413.532, 273.479 416.980 C 275.308 418.698, 277.116 419.365, 279.746 419.290 C 284.935 419.143, 288.948 414.493, 291.954 405.143 C 294.385 397.582, 295.948 395.882, 298.513 398.011 C 300.400 399.577, 300.416 404.068, 298.551 408.532 C 296.656 413.068, 297.933 412.923, 302.281 408.111 C 305.774 404.245, 307.690 400.357, 306.626 399.293 C 305.540 398.207, 308.102 395, 310.057 395 C 313.010 395, 314.585 399.186, 313.258 403.510 C 312.039 407.483, 312.683 407.824, 316.192 405.064 C 319.861 402.178, 324.681 392.354, 325.990 385.094 C 327.652 375.873, 325.452 362.100, 320.780 352.485 C 318.829 348.469, 318.764 347.745, 320.013 343.960 C 321.601 339.149, 320.973 337.631, 315.995 334.241 C 308.844 329.372, 297.316 327.728, 289.600 330.478 M 210.655 341.829 C 208.920 343.746, 208.359 349, 209.889 349 C 210.378 349, 211.796 348.176, 213.040 347.169 C 214.791 345.751, 215.150 344.735, 214.632 342.669 C 213.844 339.529, 212.914 339.333, 210.655 341.829 M 212.661 351.052 C 210.318 352.895, 209.995 353.713, 210.563 356.365 C 211.447 360.497, 211.525 360.541, 214.469 358.612 C 217.007 356.949, 217.568 354.297, 216.145 350.687 C 215.470 348.977, 215.272 348.998, 212.661 351.052 M 215.118 361.876 C 213.085 363.440, 212.874 364.123, 213.680 366.541 C 214.861 370.082, 215.894 370.418, 218.777 368.202 C 220.813 366.636, 220.935 366.111, 219.929 363.226 C 218.629 359.497, 218.324 359.411, 215.118 361.876 M 219.250 371.674 C 216.551 373.557, 216.469 374.752, 218.827 377.817 C 220.420 379.887, 220.898 380.004, 223.305 378.907 C 226.429 377.484, 226.536 376.937, 224.474 372.950 C 222.740 369.596, 222.361 369.504, 219.250 371.674 M 225.750 381.572 C 222.453 383.361, 222.384 383.948, 225.073 387.365 C 227.408 390.334, 228.786 390.608, 231.477 388.640 C 233.277 387.325, 233.264 387.163, 231.087 383.640 C 229.849 381.638, 228.761 380.018, 228.668 380.040 C 228.576 380.062, 227.262 380.751, 225.750 381.572 M 232.441 392.446 C 230.555 393.851, 230.586 393.979, 233.540 396.967 C 236.341 399.800, 236.834 399.954, 239.790 398.923 C 241.556 398.308, 243 397.535, 243 397.207 C 243 395.869, 237.512 391, 236.004 391 C 235.112 391, 233.509 391.651, 232.441 392.446 M 244.250 401.220 C 243.012 401.817, 242 402.650, 242 403.071 C 242 404.417, 248.802 408.095, 252.209 408.592 C 255.094 409.013, 259.255 407.696, 257.971 406.769 C 256.759 405.893, 246.846 400.008, 246.684 400.068 C 246.583 400.105, 245.488 400.624, 244.250 401.220 M 202.761 435.012 C 191.233 437.413, 185.091 439.487, 175.871 444.091 C 152.466 455.779, 127.645 486.828, 119.984 514 C 117.943 521.240, 116.015 542, 117.383 542 C 117.752 542, 119.644 540.552, 121.588 538.783 C 130.404 530.761, 143.039 525.548, 165.831 520.527 C 189.341 515.348, 200.391 505.634, 210.031 481.669 C 214.776 469.871, 217.756 457.032, 218.621 444.654 C 219.532 431.615, 219.414 431.544, 202.761 435.012 M 226.244 443.596 C 226.650 451.255, 227.494 455.540, 229.968 462.500 C 236.668 481.356, 249.368 501.429, 259.131 508.596 C 268.818 515.707, 282.675 519.974, 296.138 519.992 C 303.933 520.003, 327.202 524.672, 333.634 527.517 C 336.554 528.808, 341.031 531.301, 343.583 533.057 L 348.222 536.249 347.489 530.874 C 346.497 523.595, 343.486 512.300, 340.979 506.450 C 334.900 492.270, 322.218 475.660, 307.647 462.795 C 285.439 443.189, 267.996 436.015, 238.609 434.400 L 225.718 433.692 226.244 443.596" stroke="none" fill="#fbfbfb" fill-rule="evenodd"/></svg>