<svg xmlns="http://www.w3.org/2000/svg" width="1586" height="587" viewBox="0 0 1586 587" version="1.1"><path d="M 243.330 78.852 C 233.955 82.092, 221.712 93.276, 217.193 102.730 C 215.948 105.334, 214.630 106.256, 210.398 107.487 C 206.779 108.539, 203.459 110.556, 199.719 113.974 L 194.292 118.934 191.139 114.545 C 181.250 100.773, 165.071 102.660, 154.311 118.840 C 148.281 127.908, 144.909 138.693, 144.257 151 C 143.787 159.862, 143.345 161.968, 141.421 164.501 C 136.737 170.670, 131 187.439, 131 194.963 C 131 198.294, 130.686 198.671, 126.782 200.031 C 121.269 201.951, 118.962 205.692, 120.972 209.449 C 122.672 212.624, 129.699 217.075, 136.663 219.388 C 139.502 220.331, 142.090 221.791, 142.413 222.633 C 143.300 224.946, 143.116 231.810, 142.151 232.407 C 141.684 232.695, 137.972 231.743, 133.901 230.291 C 125.728 227.376, 122.401 227.579, 119.028 231.201 C 115.266 235.238, 117.040 243.560, 123.146 250.514 C 124.879 252.487, 127.475 254.712, 128.916 255.456 C 130.726 256.393, 131.897 258.165, 132.707 261.196 C 134.850 269.208, 145.827 281.270, 159.688 290.846 C 164.216 293.974, 177.762 300.549, 182.767 302.048 C 185.095 302.746, 187 303.832, 187 304.463 C 187 306.709, 181.240 314.639, 176.906 318.359 C 170.994 323.434, 161.944 328.861, 158.116 329.627 L 155 330.250 155 325.760 C 155 321.028, 152.139 316, 149.448 316 C 148.674 316, 147.169 314.292, 146.105 312.205 C 143.902 307.888, 136.791 300.977, 132.002 298.501 C 130.227 297.583, 126.238 296.588, 123.137 296.290 C 116.678 295.668, 113.412 293.951, 103.157 285.790 C 93.196 277.862, 88.644 275.637, 82.316 275.601 C 69.123 275.526, 69.107 288.595, 82.286 300.520 C 87.316 305.072, 88.085 306.193, 87.043 307.448 C 85.702 309.064, 85.395 314.518, 86.457 317.864 C 87.483 321.097, 82.982 321.786, 79.183 318.977 C 77.547 317.768, 74.158 316.547, 71.652 316.264 C 67.570 315.804, 66.778 316.068, 64.048 318.798 C 61.777 321.069, 61 322.766, 61 325.455 C 61 336.568, 71.817 345.810, 88.982 349.362 C 92.940 350.181, 96.926 351.506, 97.839 352.305 C 103.010 356.831, 113.133 359.491, 120.154 358.170 C 124.122 357.423, 125.041 357.567, 126.394 359.147 C 129.160 362.377, 137.324 360.929, 140.945 356.566 C 141.904 355.411, 144.127 355, 149.412 355 C 162.867 355, 174.947 350.340, 184.968 341.284 L 190.739 336.068 190.667 354.784 C 190.607 370.601, 190.944 375.126, 192.846 384 C 197.400 405.249, 210.524 425.280, 229.403 439.796 C 230.999 441.024, 232.124 442.178, 231.903 442.362 C 231.681 442.545, 228.922 443.197, 225.771 443.810 C 218.206 445.282, 206.565 450.194, 198.780 455.199 C 185.572 463.692, 168.773 483.315, 160.855 499.500 C 154.128 513.253, 152.567 519.756, 152.531 534.175 C 152.503 545.443, 152.729 547.156, 154.561 549.612 C 156.816 552.635, 159 553.822, 159 552.025 C 159 550.089, 165.282 542.918, 169.566 539.962 C 174.693 536.425, 191.093 530.676, 201.836 528.650 C 224.192 524.433, 237.749 511.009, 246.929 484 C 249.170 477.408, 249.986 475.949, 250.564 477.500 C 255.292 490.190, 264.882 505.787, 272.866 513.771 C 278.140 519.044, 288.547 524.800, 296.678 526.939 C 298.976 527.544, 306.176 528.461, 312.678 528.978 C 335.446 530.786, 346.176 534.308, 355.088 542.898 C 357.999 545.704, 360.544 548, 360.742 548 C 362.097 548, 364 539.907, 364 534.144 C 364 510.311, 345.347 480.336, 317.808 459.918 C 302.675 448.697, 289.008 443.731, 267.907 441.786 L 255.314 440.625 254.157 436.298 C 252.903 431.609, 252.679 425.797, 253.618 422.296 C 254.192 420.155, 254.353 420.201, 259.354 423.936 C 266.149 429.011, 273.254 432.493, 280.815 434.452 C 284.209 435.332, 288.628 437.165, 290.633 438.526 C 295.602 441.897, 302.707 441.950, 306.673 438.644 C 308.228 437.349, 311.174 435.981, 313.221 435.605 C 315.267 435.228, 318.276 433.798, 319.907 432.425 C 322.047 430.624, 323.556 430.101, 325.328 430.546 C 328.656 431.381, 333.023 428.959, 337.392 423.856 C 341.672 418.855, 344.535 411.672, 345.512 403.482 C 345.904 400.192, 347.351 393.675, 348.726 389 C 353.179 373.858, 352.102 354.553, 345.922 338.766 C 343.501 332.580, 336.006 320.220, 333.059 317.553 C 329.977 314.764, 330.570 313.922, 334.468 315.551 C 339.130 317.499, 340.727 317.378, 342.011 314.979 C 342.849 313.413, 342.603 311.617, 340.914 306.985 C 337.924 298.783, 338.640 295.784, 346.870 282.063 C 358.529 262.626, 359.309 260.718, 359.786 250.500 C 360.114 243.454, 359.792 240.278, 358.299 235.872 L 356.393 230.244 362.183 229.639 C 373.663 228.439, 375.167 224.403, 366.515 218.011 C 358.720 212.252, 357.825 210, 356.781 193.500 C 355.670 175.936, 353.839 165.412, 350.839 159.346 C 347.878 153.357, 339.712 144.914, 334.125 142.064 L 329.826 139.871 335.428 134.185 C 345.640 123.820, 353.229 104.514, 350.143 96.750 C 348.795 93.360, 347.033 93.293, 342.229 96.451 C 331.334 103.612, 314.263 100.504, 282 85.483 C 274.575 82.026, 266.700 78.706, 264.500 78.104 C 258.594 76.490, 249.205 76.822, 243.330 78.852 M 243.268 85.965 C 236.580 89.001, 223 102.708, 223 106.423 C 223 107.040, 224.556 108.383, 226.457 109.407 C 228.359 110.431, 231.113 112.998, 232.577 115.112 C 234.473 117.847, 236.142 119.085, 238.370 119.407 C 257.354 122.150, 264.727 124.103, 276.697 129.558 C 297.250 138.924, 316.258 156.752, 327.421 177.131 C 335.950 192.702, 342.077 217.169, 342.132 235.875 C 342.191 255.700, 335.910 287.245, 329.301 300.322 C 327.759 303.372, 328.492 305.122, 332.122 307.065 C 333.756 307.940, 333.859 307.602, 333.326 303.102 C 332.413 295.392, 333.464 292.353, 341.977 278.100 C 354.969 256.349, 356.054 251.310, 351.413 234.272 C 349.579 227.543, 349.136 224.464, 349.892 223.708 C 350.479 223.121, 353.331 222.747, 356.230 222.877 L 361.500 223.113 357.799 219.307 C 352.323 213.674, 351.148 209.825, 350.020 193.817 C 347.924 164.058, 347.672 163.338, 334.989 151 C 329.619 145.775, 324.930 140.523, 324.570 139.330 C 324.052 137.611, 325.226 135.702, 330.208 130.155 C 333.669 126.302, 337.489 121.204, 338.697 118.825 C 341.802 112.715, 345.967 103, 345.482 103 C 345.257 103, 342.695 103.948, 339.787 105.106 C 328.472 109.612, 310.449 105.771, 282.758 92.951 C 275.466 89.575, 267.516 86.180, 265.091 85.406 C 258.714 83.372, 248.398 83.636, 243.268 85.965 M 209.757 88.281 C 206.064 89.183, 201 93.891, 201 96.422 C 201 97.119, 201.838 98.448, 202.862 99.375 C 204.621 100.967, 205.120 100.858, 211.916 97.406 C 218.288 94.168, 219.074 93.459, 218.804 91.192 C 218.431 88.051, 215.093 86.977, 209.757 88.281 M 174.986 89.315 C 171.316 91.138, 171.152 94.745, 174.681 95.999 C 176.231 96.550, 178.400 97.530, 179.500 98.178 C 186.480 102.285, 188.413 102.426, 189.529 98.908 C 190.481 95.909, 189.169 93.263, 185.698 91.178 C 181.178 88.463, 177.863 87.886, 174.986 89.315 M 208.250 92.989 C 203.305 96.004, 204.373 97.045, 209.664 94.367 C 215.334 91.496, 215.889 90.999, 213.417 91.004 C 212.363 91.006, 210.037 91.899, 208.250 92.989 M 180.317 94.526 C 185.615 97.247, 186 97.361, 186 96.216 C 186 94.904, 180.344 91.998, 177.846 92.026 C 176.030 92.046, 176.588 92.610, 180.317 94.526 M 169.206 112.669 C 164.705 114.887, 158.206 122.425, 155.411 128.669 C 147.654 145.995, 147.582 168.665, 155.247 180.039 C 158.263 184.513, 163.546 188, 167.310 188 C 173.477 188, 183 180.168, 183 175.096 C 183 172.494, 182.475 172.481, 179.273 175 C 176.430 177.237, 171.344 177.579, 168.877 175.701 C 165.539 173.160, 163.008 167.570, 163.004 162.734 C 163 158.284, 163.229 157.859, 166.448 156.323 L 169.896 154.679 167.284 150.222 L 164.672 145.765 166.569 142.242 C 167.612 140.305, 170.165 137.596, 172.241 136.222 C 175.411 134.124, 176.791 133.815, 180.841 134.295 L 185.666 134.866 187.833 130.406 C 190.602 124.707, 190.569 124.148, 187.164 119.078 C 181.984 111.365, 176.107 109.268, 169.206 112.669 M 209.307 114.077 C 196.219 120.556, 186.091 142.839, 187.300 162.500 C 187.945 172.996, 190.919 180.790, 196.046 185.422 C 199.378 188.433, 200.735 189, 204.602 189 C 210.186 189, 214.625 187.014, 218.901 182.602 L 222.119 179.282 217.048 179.769 C 212.265 180.229, 211.789 180.056, 208.630 176.706 C 205.115 172.980, 204 169.557, 204 162.494 C 204 158.302, 204.066 158.221, 208.373 157.136 L 212.746 156.035 211.409 150.286 C 209.827 143.479, 210.749 141.296, 216.326 138.649 C 220.638 136.603, 221.360 136.602, 225.649 138.638 C 229.051 140.252, 232.878 145.932, 233.110 149.710 C 233.170 150.695, 233.622 149.475, 234.114 147 C 235.153 141.775, 233.833 130.237, 231.578 124.840 C 228.467 117.394, 222.047 111.999, 216.300 112.001 C 214.760 112.001, 211.613 112.936, 209.307 114.077 M 239.081 129.750 C 240.458 135.677, 240.114 150.887, 238.444 158 C 234.994 172.689, 224.631 188.096, 215.179 192.588 C 210.370 194.874, 203.123 195.526, 198.710 194.069 C 196.772 193.430, 193.149 190.729, 190.660 188.067 L 186.134 183.229 183.817 185.710 C 177.299 192.689, 167.876 195.378, 160.885 192.253 C 153.673 189.031, 149.833 184.100, 145.501 172.500 C 144.866 170.799, 144.407 171.247, 142.427 175.500 C 139.726 181.304, 137 191.194, 137 195.191 C 137 197.269, 137.562 198.070, 139.250 198.395 C 140.488 198.634, 149.600 200.415, 159.500 202.354 C 184.626 207.275, 187.007 207.448, 196.410 205.032 C 207.003 202.311, 209.231 202.350, 208.820 205.250 C 208.573 206.988, 207.249 207.919, 203 209.343 C 191.204 213.297, 177.864 212.654, 153.115 206.937 C 139.296 203.746, 135.507 203.454, 129.506 205.120 L 125.512 206.229 129.006 209.149 C 136.343 215.282, 156.693 219.500, 175 218.684 C 191.643 217.941, 203.889 214.659, 213.310 208.416 C 220.770 203.473, 221.964 203.416, 227.121 207.755 C 236.400 215.563, 236.245 232.760, 226.798 243.492 C 217.252 254.337, 203.624 256.889, 179.500 252.350 C 167.811 250.150, 160.310 247.681, 143.360 240.456 C 127.687 233.775, 124.341 232.947, 123.361 235.502 C 121.695 239.842, 127.549 247.858, 134.942 251.362 C 138.057 252.838, 139.601 254.230, 139.820 255.761 C 139.995 256.992, 139.658 258, 139.070 258 C 137.091 258, 137.975 260.211, 142.473 266.514 C 152.516 280.588, 171.086 292.820, 189.500 297.489 C 198.881 299.868, 216.068 299.876, 225.500 297.505 C 237.248 294.552, 246.329 289.631, 254.731 281.662 C 275.088 262.355, 282.113 243.096, 277.451 219.382 C 276.112 212.571, 275.906 209.694, 276.702 208.898 C 278.138 207.462, 282.411 214.669, 284.071 221.324 L 285.274 226.147 289.387 222.170 C 294.356 217.366, 300.479 214, 304.250 214 C 306.313 214, 307.540 214.838, 309.011 217.250 C 311.661 221.597, 311.497 226.589, 308.533 231.772 L 306.091 236.045 308.545 239.662 C 311.655 244.244, 311.645 247.795, 308.503 253.993 C 306.443 258.060, 306.199 259.343, 307.109 261.340 C 308.063 263.434, 307.660 264.673, 304.106 270.566 C 301.848 274.310, 300 277.916, 300 278.580 C 300 283.627, 285.098 279.147, 278.279 272.050 L 274.315 267.925 271.692 271.889 C 267.257 278.591, 257.255 288.613, 250.208 293.417 C 238.148 301.638, 216.832 307.079, 202.454 305.605 L 196.282 304.973 197.269 309.962 C 197.922 313.264, 197.906 322.650, 197.223 337.725 C 196.137 361.681, 196.699 373.291, 199.561 386.096 C 203.136 402.086, 215.010 420.214, 229.592 431.945 C 238.007 438.714, 240.916 440.418, 245.896 441.491 C 249.116 442.185, 249.256 442.101, 248.609 439.861 C 247.043 434.442, 246.795 426.679, 248.005 420.975 C 249.278 414.978, 249.264 414.895, 246.327 410.715 C 228.784 385.743, 226.153 354.516, 239.718 332.265 C 243.803 325.563, 253.521 315.049, 261.441 308.762 C 270.267 301.756, 281.794 297.039, 290.156 297.012 C 293.266 297.002, 293.738 296.713, 293.311 295.081 C 292.972 293.787, 294.130 291.729, 296.869 288.758 C 302.014 283.177, 306.859 280.497, 310.262 281.351 C 312.500 281.913, 318.445 288.755, 322.657 295.616 C 323.715 297.341, 323.946 297.189, 325.390 293.821 C 330.731 281.363, 336.195 252.192, 336.127 236.500 C 336.015 210.718, 326.414 182.753, 311.238 164.005 C 297.353 146.853, 276.431 133.650, 255 128.517 C 249.225 127.134, 243.085 126.002, 241.355 126.001 C 238.233 126, 238.217 126.027, 239.081 129.750 M 465.315 142.007 C 464.114 142.491, 462.651 143.783, 462.065 144.878 C 461.326 146.259, 461 189.382, 461 285.712 C 461 409.757, 461.166 424.792, 462.557 426.777 C 464.091 428.969, 464.450 429, 487.985 429 C 508.354 429, 512.088 428.769, 513.429 427.429 C 514.812 426.045, 515 420.303, 515 379.429 L 515 333 569.365 333 C 622.851 333, 623.773 332.966, 626.365 330.927 L 629 328.855 629 308.427 C 629 289.333, 628.869 287.869, 627 286 C 625.048 284.048, 623.667 284, 570 284 L 515 284 515 238.020 L 515 192.039 585.973 191.770 L 656.945 191.500 659.223 189.225 C 661.399 187.051, 661.514 186.139, 661.824 168.725 C 662.218 146.623, 661.568 143.530, 656.222 142.045 C 651.580 140.756, 468.511 140.719, 465.315 142.007 M 707.210 142.086 C 705.126 142.714, 703.565 144.013, 702.950 145.631 C 702.335 147.250, 702.075 199.059, 702.240 287.173 C 702.495 423.446, 702.538 426.189, 704.441 427.581 C 705.986 428.710, 711.140 429, 729.691 429 C 751.667 429, 753.114 428.886, 755 427 C 756.981 425.019, 757 423.667, 757 286.056 L 757 147.112 754.588 144.306 L 752.176 141.500 731.338 141.297 C 719.774 141.184, 709.036 141.535, 707.210 142.086 M 817.501 142.066 C 815.852 142.558, 813.939 143.730, 813.251 144.671 C 812.264 146.021, 812 175.709, 812 285.469 C 812 409.734, 812.166 424.792, 813.557 426.777 L 815.113 429 936.402 429 C 1052.634 429, 1057.759 428.924, 1059.345 427.171 C 1060.868 425.488, 1061 414.210, 1061 285.326 L 1061 145.310 1058.897 143.405 C 1056.998 141.686, 1054.768 141.467, 1036.013 141.164 C 1018.404 140.880, 1014.757 141.074, 1012.116 142.440 C 1010.402 143.326, 1008.893 144.152, 1008.762 144.276 C 1008.632 144.399, 1008.294 188.024, 1008.012 241.219 L 1007.500 337.939 989.087 311.719 C 978.960 297.299, 948.221 253.451, 920.777 214.280 C 874.023 147.547, 870.648 142.996, 867.190 142.036 C 862.700 140.789, 821.702 140.814, 817.501 142.066 M 1130.761 141.715 C 1124.620 142.647, 1125 133.134, 1125 286.068 C 1125 420.062, 1125.074 425.757, 1126.829 427.345 C 1128.501 428.859, 1136.217 429, 1217.256 429 L 1305.855 429 1307.927 426.365 C 1309.863 423.905, 1310 422.443, 1310 404.315 C 1310 383.339, 1309.291 379.847, 1304.790 378.641 C 1303.531 378.303, 1274.713 378.021, 1240.750 378.014 L 1179 378 1179 263.047 C 1179 179.258, 1178.692 147.417, 1177.862 145.597 C 1177.236 144.223, 1175.369 142.627, 1173.713 142.050 C 1170.859 141.055, 1136.858 140.790, 1130.761 141.715 M 1267.657 141.707 C 1266.517 142.001, 1265.983 142.827, 1266.257 143.874 C 1266.500 144.805, 1288.367 182.125, 1314.850 226.809 L 1363 308.051 1363 366.871 C 1363 422.584, 1363.097 425.777, 1364.829 427.345 C 1366.419 428.784, 1369.666 429, 1389.756 429 L 1412.855 429 1414.927 426.365 C 1416.971 423.768, 1417 422.900, 1417 365.175 L 1417 306.619 1432.750 280.107 C 1515.313 141.128, 1513.911 143.564, 1512.164 142.199 C 1510.867 141.185, 1504.384 140.964, 1482.776 141.199 C 1456.579 141.483, 1454.946 141.610, 1453.114 143.500 C 1451.403 145.266, 1442.220 161.747, 1401.296 236.500 C 1395.576 246.950, 1390.540 255.856, 1390.107 256.291 C 1389.673 256.726, 1376.362 233.326, 1360.527 204.291 C 1326.540 141.974, 1327.334 143.312, 1323.603 142.011 C 1320.742 141.014, 1271.386 140.746, 1267.657 141.707 M 218.626 211.796 C 218.316 212.297, 218.602 214.134, 219.260 215.879 C 220.770 219.879, 219.684 221.843, 214.548 224.396 C 210.029 226.642, 206.069 225.772, 204.500 222.188 C 203.772 220.525, 202.956 220.066, 201.500 220.499 C 200.400 220.827, 194.811 221.974, 189.081 223.048 C 176.610 225.384, 165.510 225.527, 154 223.500 C 149.325 222.677, 145.500 222.003, 145.500 222.004 C 145.500 222.005, 145.503 224.988, 145.506 228.632 L 145.512 235.258 150.860 237.618 C 156.977 240.318, 169.876 244.511, 175.051 245.482 C 178.393 246.109, 178.634 245.956, 180.305 242.170 C 183.011 236.036, 192.249 232.922, 198.237 236.127 C 199.901 237.018, 200.571 236.939, 201.439 235.753 C 205.338 230.421, 216.687 228.235, 223.143 231.574 C 224.816 232.439, 226.454 232.880, 226.781 232.553 C 227.108 232.226, 227.551 229.380, 227.766 226.229 C 228.082 221.601, 227.696 219.635, 225.754 216 C 223.458 211.702, 219.960 209.638, 218.626 211.796 M 209.757 217.209 C 206.472 218.919, 206.147 219.406, 207.099 221.186 C 207.969 222.811, 208.808 223.088, 211.329 222.584 C 215.485 221.753, 217.377 219.764, 216.535 217.112 C 215.740 214.607, 214.729 214.621, 209.757 217.209 M 299 219.766 C 297.075 220.712, 293.404 223.514, 290.842 225.993 C 286.597 230.100, 286.126 231.032, 285.528 236.500 C 284.856 242.647, 282.644 250.872, 279.424 259.198 C 277.810 263.371, 277.768 264.197, 279.043 266.580 C 281.026 270.287, 286.048 273.909, 291.458 275.538 L 296.007 276.906 298.141 272.703 C 299.315 270.391, 301.082 267.466, 302.069 266.202 C 303.521 264.342, 303.667 263.343, 302.835 260.955 C 301.966 258.463, 302.209 257.319, 304.403 253.575 C 307.715 247.924, 307.745 244.048, 304.500 241 C 303.125 239.708, 302 238.040, 302 237.292 C 302 236.545, 303.125 233.713, 304.500 231 C 307.212 225.647, 307.571 222.936, 305.965 219.934 C 304.702 217.574, 303.517 217.546, 299 219.766 M 865 302.300 L 865 382 920.568 382 L 976.136 382 974.213 379.250 C 973.155 377.738, 948.538 342.300, 919.507 300.500 C 890.477 258.700, 866.337 224.072, 865.862 223.550 C 865.378 223.017, 865 257.571, 865 302.300 M 204.922 235.941 C 200.888 238.650, 200.047 238.836, 194.256 238.295 L 187.968 237.708 183.811 242.079 L 179.653 246.449 183.076 247.280 C 184.959 247.736, 191.450 248.182, 197.500 248.269 C 207.080 248.408, 209.179 248.127, 213.757 246.088 C 216.649 244.801, 220.420 242.146, 222.139 240.189 L 225.263 236.631 223.021 234.816 C 221.436 233.533, 219.094 233, 215.040 233 C 210.348 233, 208.502 233.537, 204.922 235.941 M 227.640 253.845 C 222.863 259.123, 204.442 264.562, 193.918 263.800 C 189.710 263.496, 188.282 263.682, 189.038 264.435 C 191.020 266.413, 206.873 265.666, 214.684 263.227 C 221.543 261.084, 229.879 255.910, 230.755 253.250 C 231.367 251.391, 229.547 251.738, 227.640 253.845 M 80.250 281.662 C 78.107 282.527, 78.877 287.479, 81.750 291.313 C 85.377 296.151, 94.227 302.710, 98.827 303.970 C 100.847 304.523, 103.973 305.881, 105.774 306.988 C 107.575 308.094, 109.214 309, 109.416 309 C 109.781 309, 113 301.371, 113 300.505 C 113 300.256, 111.763 299.411, 110.250 298.628 C 108.737 297.846, 103.565 294.031, 98.756 290.151 C 93.946 286.271, 88.321 282.628, 86.256 282.054 C 82.182 280.923, 82.097 280.917, 80.250 281.662 M 304.250 290.034 C 299.414 293.606, 299.223 294.342, 302.060 298.500 C 309.266 309.061, 316.051 326.669, 318.721 341.739 L 320.366 351.022 324.284 352.076 C 326.439 352.657, 328.409 352.924, 328.662 352.671 C 330.059 351.274, 330.014 340.368, 328.577 332.086 C 325.760 315.854, 318.993 299.220, 311.737 290.698 L 308.500 286.895 304.250 290.034 M 117.483 306.032 C 116.621 307.700, 115.423 312.537, 114.820 316.782 C 113.404 326.769, 114.763 332.651, 118.717 333.644 C 124.080 334.990, 128.648 330.008, 131.054 320.187 C 131.842 316.972, 132.542 315.957, 133.805 316.196 C 135.064 316.435, 135.579 317.755, 135.807 321.325 C 136.429 331.048, 129.073 340, 120.459 340 C 118.217 340, 115.510 339.362, 114.445 338.583 C 112.689 337.299, 112.259 337.463, 109.861 340.333 C 107.480 343.184, 106.681 343.495, 101.858 343.445 C 91.700 343.342, 81.418 336.557, 79.446 328.655 C 78.663 325.520, 73.819 322.010, 70.269 322.004 C 67.203 321.999, 66.236 326.176, 68.302 330.506 C 71.221 336.628, 79.699 341.378, 92.351 343.980 C 95.762 344.682, 100.061 346.494, 102.659 348.325 C 106.497 351.030, 108.156 351.520, 114.594 351.845 C 121.437 352.190, 122.408 351.989, 126.027 349.481 C 129.283 347.225, 130.249 346.962, 131.491 347.993 C 133.433 349.605, 133.397 350.904, 131.345 353.171 C 129.790 354.890, 129.821 355, 131.871 355 C 134.869 355, 142.284 347.346, 145.572 340.857 C 147.291 337.466, 148.448 333.282, 148.767 329.309 C 149.239 323.431, 149.128 323.015, 146.799 321.954 C 145.441 321.336, 143.506 319.405, 142.498 317.665 C 137.229 308.567, 129.969 303, 123.375 303 C 119.572 303, 118.862 303.365, 117.483 306.032 M 282.024 304.603 C 250.733 313.012, 238.205 356.752, 256.848 392.500 C 262.098 402.568, 272.144 412.784, 281.426 417.495 L 288.863 421.270 293.413 418.604 C 298.692 415.510, 300 413.509, 300 408.524 L 300 404.916 295.750 407.360 C 287.744 411.964, 280.684 411.895, 275.034 407.158 C 272.693 405.195, 271.718 403.396, 271.304 400.278 C 270.797 396.452, 271.067 395.733, 274.182 392.618 C 276.789 390.011, 278.816 389.006, 282.560 388.464 C 289.043 387.524, 290 386.609, 290 381.345 C 290 376.157, 291.870 371.261, 294.876 368.582 C 296.585 367.060, 296.899 365.978, 296.402 363.327 C 295.850 360.386, 296.243 359.521, 299.712 356.052 C 302.931 352.834, 304.601 351.989, 308.866 351.423 L 314.082 350.731 313.413 346.116 C 311.645 333.930, 306.466 318.439, 300.753 308.250 L 297.809 303 292.655 303.066 C 289.820 303.102, 285.036 303.794, 282.024 304.603 M 92.361 311.502 C 91.083 314.831, 92.973 317.894, 97.552 319.920 C 100.047 321.024, 103.418 322.874, 105.044 324.031 L 108 326.136 108 320.727 L 108 315.318 103.115 312.659 C 97.676 309.699, 93.236 309.221, 92.361 311.502 M 186.936 316.597 C 181.135 324.358, 167.835 333.352, 158.404 335.891 C 154.810 336.859, 153.976 337.694, 151.172 343.131 L 148.003 349.276 154.435 348.617 C 166.873 347.343, 174.828 343.067, 185.368 331.992 L 192 325.024 192 318.512 C 192 314.930, 191.634 312, 191.186 312 C 190.738 312, 188.826 314.069, 186.936 316.597 M 87.250 325.662 C 85.122 326.521, 85.865 329.496, 88.942 332.444 C 94.289 337.567, 106 339.025, 106 334.568 C 106 332.876, 99.628 327.189, 96.324 325.933 C 93.732 324.948, 89.345 324.817, 87.250 325.662 M 335.465 343.863 C 335.503 354.298, 335.825 357.162, 337.128 358.652 C 340.863 362.926, 342.122 368.677, 340.042 371.966 C 339.532 372.773, 339.480 373.898, 339.927 374.466 C 340.374 375.035, 341.305 377.255, 341.996 379.399 C 343.953 385.468, 345.068 381.781, 345.080 369.207 C 345.092 355.552, 342.791 345.297, 337.323 334.638 L 335.416 330.922 335.465 343.863 M 240.128 347.345 C 239.514 348.085, 238.718 350.162, 238.358 351.960 C 237.738 355.062, 237.814 355.170, 239.852 354.079 C 241.415 353.243, 242 351.986, 242 349.465 C 242 345.635, 241.767 345.371, 240.128 347.345 M 238.585 357.906 C 237.518 359.085, 236.982 361.005, 237.180 362.935 C 237.490 365.964, 237.568 366.010, 239.750 364.472 C 241.341 363.351, 242 361.878, 242 359.443 C 242 355.549, 241.089 355.139, 238.585 357.906 M 306 358.688 C 301.265 361.139, 301.399 363.379, 306.290 363.549 C 308.375 363.622, 310.615 364.215, 311.268 364.868 C 313.061 366.661, 310.865 369.446, 307.399 369.774 C 299.334 370.537, 296.010 374.044, 296.004 381.800 C 295.997 389.774, 292.931 392.950, 283.782 394.464 C 277.384 395.522, 275.288 399.141, 279.084 402.576 C 282.139 405.341, 287.494 404.788, 294.796 400.953 L 301.091 397.647 303.247 399.802 C 304.881 401.437, 305.501 403.497, 305.808 408.323 C 306.191 414.338, 306.035 414.891, 302.969 418.382 C 301.185 420.414, 297.762 423.227, 295.363 424.633 C 290.444 427.516, 290.120 428.611, 293.073 432.365 C 294.601 434.309, 296.057 435, 298.620 435 C 304.062 435, 306.506 431.633, 311.503 417.250 C 312.214 415.202, 315.716 415.807, 316.311 418.081 C 316.610 419.226, 316.266 422.122, 315.545 424.517 C 314.351 428.484, 314.380 428.779, 315.867 427.839 C 318.678 426.065, 321.352 421.769, 321.955 418.063 C 322.438 415.091, 322.946 414.500, 325.017 414.500 C 327.350 414.500, 327.497 414.816, 327.458 419.734 C 327.418 424.773, 327.492 424.918, 329.458 423.641 C 332.894 421.408, 337.715 412.314, 338.954 405.726 C 340.378 398.155, 339.102 388.596, 335.447 379.459 C 332.643 372.450, 332.553 371.688, 334.220 369.019 C 335.841 366.423, 332.874 362.246, 327.521 359.589 C 321.934 356.816, 310.537 356.339, 306 358.688 M 239.133 367.892 C 237.380 369.220, 236.943 370.245, 237.450 371.843 C 238.245 374.348, 238.822 374.450, 241.354 372.532 C 242.790 371.444, 243.016 370.559, 242.354 368.613 C 241.515 366.144, 241.458 366.131, 239.133 367.892 M 240.864 375.892 C 238.924 377.418, 238.389 378.582, 238.752 380.483 C 239.402 383.881, 240.125 384.168, 242.855 382.109 C 244.818 380.628, 245.031 379.898, 244.309 377.111 L 243.463 373.848 240.864 375.892 M 242.704 385.425 C 241.408 386.409, 241.090 387.512, 241.563 389.394 C 242.296 392.315, 243.712 392.662, 246.519 390.610 C 248.152 389.416, 248.253 388.850, 247.232 386.610 C 245.888 383.660, 245.252 383.494, 242.704 385.425 M 246.832 393.782 C 244.337 395.419, 244.270 395.668, 245.627 398.258 C 247.236 401.329, 247.601 401.434, 250.661 399.715 C 252.755 398.538, 252.770 398.399, 251.148 395.275 C 249.483 392.067, 249.459 392.059, 246.832 393.782 M 251.745 402.611 L 248.991 404.069 251.183 407.034 C 253.730 410.479, 253.230 410.308, 256.453 408.839 C 259.519 407.443, 259.530 407.227, 256.714 403.827 C 254.624 401.302, 254.346 401.235, 251.745 402.611 M 258.231 411.331 L 255.963 412.590 258.963 415.464 C 261.666 418.054, 262.226 418.218, 264.626 417.125 L 267.289 415.911 264.457 412.956 C 261.250 409.607, 261.308 409.622, 258.231 411.331 M 267.250 419.662 C 265.165 420.504, 265.815 421.528, 269.886 423.816 C 273.859 426.048, 276.567 426.487, 279.479 425.370 C 280.712 424.897, 279.869 424.025, 276.096 421.870 C 271.132 419.035, 269.694 418.676, 267.250 419.662 M 236 447.688 C 227.362 449.122, 216.358 452.745, 208.540 456.729 C 200.947 460.599, 197.810 463.029, 188.939 471.918 C 183.130 477.738, 176.437 485.370, 174.065 488.877 C 168.028 497.804, 161.490 512.187, 159.599 520.697 C 157.912 528.292, 157.428 541, 158.826 541 C 159.280 541, 160.742 539.832, 162.076 538.405 C 167.498 532.600, 182.542 526.368, 199.486 522.906 C 217.894 519.145, 227.670 511.789, 235.351 495.915 C 241.787 482.614, 245 470.779, 245.712 457.750 L 246.300 447 242.400 447.136 C 240.255 447.211, 237.375 447.459, 236 447.688 M 252 453.196 C 252 468.715, 263.234 493.908, 276.328 507.753 C 284.898 516.815, 294.507 520.823, 310.500 522.007 C 322.125 522.867, 339.685 526.034, 344.581 528.152 C 346.186 528.846, 349.863 530.891, 352.750 532.695 C 358.712 536.420, 358.656 536.521, 356.562 525.838 C 353.235 508.867, 345.269 495.020, 329.705 479.156 C 309.143 458.197, 290.655 449.406, 264.750 448.271 L 252 447.713 252 453.196" stroke="none" fill="#060606" fill-rule="evenodd"/><path d="M 0 293.501 L 0 587.001 793.250 586.751 L 1586.500 586.500 1586.752 293.250 L 1587.003 -0 793.502 -0 L 0 0 0 293.501 M 0.493 294 C 0.493 455.425, 0.609 521.462, 0.750 440.750 C 0.891 360.037, 0.891 227.962, 0.750 147.250 C 0.609 66.537, 0.493 132.575, 0.493 294 M 243.330 78.852 C 233.955 82.092, 221.712 93.276, 217.193 102.730 C 215.948 105.334, 214.630 106.256, 210.398 107.487 C 206.779 108.539, 203.459 110.556, 199.719 113.974 L 194.292 118.934 191.139 114.545 C 181.250 100.773, 165.071 102.660, 154.311 118.840 C 148.281 127.908, 144.909 138.693, 144.257 151 C 143.787 159.862, 143.345 161.968, 141.421 164.501 C 136.737 170.670, 131 187.439, 131 194.963 C 131 198.294, 130.686 198.671, 126.782 200.031 C 121.269 201.951, 118.962 205.692, 120.972 209.449 C 122.672 212.624, 129.699 217.075, 136.663 219.388 C 139.502 220.331, 142.090 221.791, 142.413 222.633 C 143.300 224.946, 143.116 231.810, 142.151 232.407 C 141.684 232.695, 137.972 231.743, 133.901 230.291 C 125.728 227.376, 122.401 227.579, 119.028 231.201 C 115.266 235.238, 117.040 243.560, 123.146 250.514 C 124.879 252.487, 127.475 254.712, 128.916 255.456 C 130.726 256.393, 131.897 258.165, 132.707 261.196 C 134.850 269.208, 145.827 281.270, 159.688 290.846 C 164.216 293.974, 177.762 300.549, 182.767 302.048 C 185.095 302.746, 187 303.832, 187 304.463 C 187 306.709, 181.240 314.639, 176.906 318.359 C 170.994 323.434, 161.944 328.861, 158.116 329.627 L 155 330.250 155 325.760 C 155 321.028, 152.139 316, 149.448 316 C 148.674 316, 147.169 314.292, 146.105 312.205 C 143.902 307.888, 136.791 300.977, 132.002 298.501 C 130.227 297.583, 126.238 296.588, 123.137 296.290 C 116.678 295.668, 113.412 293.951, 103.157 285.790 C 93.196 277.862, 88.644 275.637, 82.316 275.601 C 69.123 275.526, 69.107 288.595, 82.286 300.520 C 87.316 305.072, 88.085 306.193, 87.043 307.448 C 85.702 309.064, 85.395 314.518, 86.457 317.864 C 87.483 321.097, 82.982 321.786, 79.183 318.977 C 77.547 317.768, 74.158 316.547, 71.652 316.264 C 67.570 315.804, 66.778 316.068, 64.048 318.798 C 61.777 321.069, 61 322.766, 61 325.455 C 61 336.568, 71.817 345.810, 88.982 349.362 C 92.940 350.181, 96.926 351.506, 97.839 352.305 C 103.010 356.831, 113.133 359.491, 120.154 358.170 C 124.122 357.423, 125.041 357.567, 126.394 359.147 C 129.160 362.377, 137.324 360.929, 140.945 356.566 C 141.904 355.411, 144.127 355, 149.412 355 C 162.867 355, 174.947 350.340, 184.968 341.284 L 190.739 336.068 190.667 354.784 C 190.607 370.601, 190.944 375.126, 192.846 384 C 197.400 405.249, 210.524 425.280, 229.403 439.796 C 230.999 441.024, 232.124 442.178, 231.903 442.362 C 231.681 442.545, 228.922 443.197, 225.771 443.810 C 218.206 445.282, 206.565 450.194, 198.780 455.199 C 185.572 463.692, 168.773 483.315, 160.855 499.500 C 154.128 513.253, 152.567 519.756, 152.531 534.175 C 152.503 545.443, 152.729 547.156, 154.561 549.612 C 156.816 552.635, 159 553.822, 159 552.025 C 159 550.089, 165.282 542.918, 169.566 539.962 C 174.693 536.425, 191.093 530.676, 201.836 528.650 C 224.192 524.433, 237.749 511.009, 246.929 484 C 249.170 477.408, 249.986 475.949, 250.564 477.500 C 255.292 490.190, 264.882 505.787, 272.866 513.771 C 278.140 519.044, 288.547 524.800, 296.678 526.939 C 298.976 527.544, 306.176 528.461, 312.678 528.978 C 335.446 530.786, 346.176 534.308, 355.088 542.898 C 357.999 545.704, 360.544 548, 360.742 548 C 362.097 548, 364 539.907, 364 534.144 C 364 510.311, 345.347 480.336, 317.808 459.918 C 302.675 448.697, 289.008 443.731, 267.907 441.786 L 255.314 440.625 254.157 436.298 C 252.903 431.609, 252.679 425.797, 253.618 422.296 C 254.192 420.155, 254.353 420.201, 259.354 423.936 C 266.149 429.011, 273.254 432.493, 280.815 434.452 C 284.209 435.332, 288.628 437.165, 290.633 438.526 C 295.602 441.897, 302.707 441.950, 306.673 438.644 C 308.228 437.349, 311.174 435.981, 313.221 435.605 C 315.267 435.228, 318.276 433.798, 319.907 432.425 C 322.047 430.624, 323.556 430.101, 325.328 430.546 C 328.656 431.381, 333.023 428.959, 337.392 423.856 C 341.672 418.855, 344.535 411.672, 345.512 403.482 C 345.904 400.192, 347.351 393.675, 348.726 389 C 353.179 373.858, 352.102 354.553, 345.922 338.766 C 343.501 332.580, 336.006 320.220, 333.059 317.553 C 329.977 314.764, 330.570 313.922, 334.468 315.551 C 339.130 317.499, 340.727 317.378, 342.011 314.979 C 342.849 313.413, 342.603 311.617, 340.914 306.985 C 337.924 298.783, 338.640 295.784, 346.870 282.063 C 358.529 262.626, 359.309 260.718, 359.786 250.500 C 360.114 243.454, 359.792 240.278, 358.299 235.872 L 356.393 230.244 362.183 229.639 C 373.663 228.439, 375.167 224.403, 366.515 218.011 C 358.720 212.252, 357.825 210, 356.781 193.500 C 355.670 175.936, 353.839 165.412, 350.839 159.346 C 347.878 153.357, 339.712 144.914, 334.125 142.064 L 329.826 139.871 335.428 134.185 C 345.640 123.820, 353.229 104.514, 350.143 96.750 C 348.795 93.360, 347.033 93.293, 342.229 96.451 C 331.334 103.612, 314.263 100.504, 282 85.483 C 274.575 82.026, 266.700 78.706, 264.500 78.104 C 258.594 76.490, 249.205 76.822, 243.330 78.852 M 243.268 85.965 C 236.580 89.001, 223 102.708, 223 106.423 C 223 107.040, 224.556 108.383, 226.457 109.407 C 228.359 110.431, 231.113 112.998, 232.577 115.112 C 234.473 117.847, 236.142 119.085, 238.370 119.407 C 257.354 122.150, 264.727 124.103, 276.697 129.558 C 297.250 138.924, 316.258 156.752, 327.421 177.131 C 335.950 192.702, 342.077 217.169, 342.132 235.875 C 342.191 255.700, 335.910 287.245, 329.301 300.322 C 327.759 303.372, 328.492 305.122, 332.122 307.065 C 333.756 307.940, 333.859 307.602, 333.326 303.102 C 332.413 295.392, 333.464 292.353, 341.977 278.100 C 354.969 256.349, 356.054 251.310, 351.413 234.272 C 349.579 227.543, 349.136 224.464, 349.892 223.708 C 350.479 223.121, 353.331 222.747, 356.230 222.877 L 361.500 223.113 357.799 219.307 C 352.323 213.674, 351.148 209.825, 350.020 193.817 C 347.924 164.058, 347.672 163.338, 334.989 151 C 329.619 145.775, 324.930 140.523, 324.570 139.330 C 324.052 137.611, 325.226 135.702, 330.208 130.155 C 333.669 126.302, 337.489 121.204, 338.697 118.825 C 341.802 112.715, 345.967 103, 345.482 103 C 345.257 103, 342.695 103.948, 339.787 105.106 C 328.472 109.612, 310.449 105.771, 282.758 92.951 C 275.466 89.575, 267.516 86.180, 265.091 85.406 C 258.714 83.372, 248.398 83.636, 243.268 85.965 M 209.757 88.281 C 206.064 89.183, 201 93.891, 201 96.422 C 201 97.119, 201.838 98.448, 202.862 99.375 C 204.621 100.967, 205.120 100.858, 211.916 97.406 C 218.288 94.168, 219.074 93.459, 218.804 91.192 C 218.431 88.051, 215.093 86.977, 209.757 88.281 M 174.986 89.315 C 171.316 91.138, 171.152 94.745, 174.681 95.999 C 176.231 96.550, 178.400 97.530, 179.500 98.178 C 186.480 102.285, 188.413 102.426, 189.529 98.908 C 190.481 95.909, 189.169 93.263, 185.698 91.178 C 181.178 88.463, 177.863 87.886, 174.986 89.315 M 208.250 92.989 C 203.305 96.004, 204.373 97.045, 209.664 94.367 C 215.334 91.496, 215.889 90.999, 213.417 91.004 C 212.363 91.006, 210.037 91.899, 208.250 92.989 M 180.317 94.526 C 185.615 97.247, 186 97.361, 186 96.216 C 186 94.904, 180.344 91.998, 177.846 92.026 C 176.030 92.046, 176.588 92.610, 180.317 94.526 M 169.206 112.669 C 164.705 114.887, 158.206 122.425, 155.411 128.669 C 147.654 145.995, 147.582 168.665, 155.247 180.039 C 158.263 184.513, 163.546 188, 167.310 188 C 173.477 188, 183 180.168, 183 175.096 C 183 172.494, 182.475 172.481, 179.273 175 C 176.430 177.237, 171.344 177.579, 168.877 175.701 C 165.539 173.160, 163.008 167.570, 163.004 162.734 C 163 158.284, 163.229 157.859, 166.448 156.323 L 169.896 154.679 167.284 150.222 L 164.672 145.765 166.569 142.242 C 167.612 140.305, 170.165 137.596, 172.241 136.222 C 175.411 134.124, 176.791 133.815, 180.841 134.295 L 185.666 134.866 187.833 130.406 C 190.602 124.707, 190.569 124.148, 187.164 119.078 C 181.984 111.365, 176.107 109.268, 169.206 112.669 M 209.307 114.077 C 196.219 120.556, 186.091 142.839, 187.300 162.500 C 187.945 172.996, 190.919 180.790, 196.046 185.422 C 199.378 188.433, 200.735 189, 204.602 189 C 210.186 189, 214.625 187.014, 218.901 182.602 L 222.119 179.282 217.048 179.769 C 212.265 180.229, 211.789 180.056, 208.630 176.706 C 205.115 172.980, 204 169.557, 204 162.494 C 204 158.302, 204.066 158.221, 208.373 157.136 L 212.746 156.035 211.409 150.286 C 209.827 143.479, 210.749 141.296, 216.326 138.649 C 220.638 136.603, 221.360 136.602, 225.649 138.638 C 229.051 140.252, 232.878 145.932, 233.110 149.710 C 233.170 150.695, 233.622 149.475, 234.114 147 C 235.153 141.775, 233.833 130.237, 231.578 124.840 C 228.467 117.394, 222.047 111.999, 216.300 112.001 C 214.760 112.001, 211.613 112.936, 209.307 114.077 M 239.081 129.750 C 240.458 135.677, 240.114 150.887, 238.444 158 C 234.994 172.689, 224.631 188.096, 215.179 192.588 C 210.370 194.874, 203.123 195.526, 198.710 194.069 C 196.772 193.430, 193.149 190.729, 190.660 188.067 L 186.134 183.229 183.817 185.710 C 177.299 192.689, 167.876 195.378, 160.885 192.253 C 153.673 189.031, 149.833 184.100, 145.501 172.500 C 144.866 170.799, 144.407 171.247, 142.427 175.500 C 139.726 181.304, 137 191.194, 137 195.191 C 137 197.269, 137.562 198.070, 139.250 198.395 C 140.488 198.634, 149.600 200.415, 159.500 202.354 C 184.626 207.275, 187.007 207.448, 196.410 205.032 C 207.003 202.311, 209.231 202.350, 208.820 205.250 C 208.573 206.988, 207.249 207.919, 203 209.343 C 191.204 213.297, 177.864 212.654, 153.115 206.937 C 139.296 203.746, 135.507 203.454, 129.506 205.120 L 125.512 206.229 129.006 209.149 C 136.343 215.282, 156.693 219.500, 175 218.684 C 191.643 217.941, 203.889 214.659, 213.310 208.416 C 220.770 203.473, 221.964 203.416, 227.121 207.755 C 236.400 215.563, 236.245 232.760, 226.798 243.492 C 217.252 254.337, 203.624 256.889, 179.500 252.350 C 167.811 250.150, 160.310 247.681, 143.360 240.456 C 127.687 233.775, 124.341 232.947, 123.361 235.502 C 121.695 239.842, 127.549 247.858, 134.942 251.362 C 138.057 252.838, 139.601 254.230, 139.820 255.761 C 139.995 256.992, 139.658 258, 139.070 258 C 137.091 258, 137.975 260.211, 142.473 266.514 C 152.516 280.588, 171.086 292.820, 189.500 297.489 C 198.881 299.868, 216.068 299.876, 225.500 297.505 C 237.248 294.552, 246.329 289.631, 254.731 281.662 C 275.088 262.355, 282.113 243.096, 277.451 219.382 C 276.112 212.571, 275.906 209.694, 276.702 208.898 C 278.138 207.462, 282.411 214.669, 284.071 221.324 L 285.274 226.147 289.387 222.170 C 294.356 217.366, 300.479 214, 304.250 214 C 306.313 214, 307.540 214.838, 309.011 217.250 C 311.661 221.597, 311.497 226.589, 308.533 231.772 L 306.091 236.045 308.545 239.662 C 311.655 244.244, 311.645 247.795, 308.503 253.993 C 306.443 258.060, 306.199 259.343, 307.109 261.340 C 308.063 263.434, 307.660 264.673, 304.106 270.566 C 301.848 274.310, 300 277.916, 300 278.580 C 300 283.627, 285.098 279.147, 278.279 272.050 L 274.315 267.925 271.692 271.889 C 267.257 278.591, 257.255 288.613, 250.208 293.417 C 238.148 301.638, 216.832 307.079, 202.454 305.605 L 196.282 304.973 197.269 309.962 C 197.922 313.264, 197.906 322.650, 197.223 337.725 C 196.137 361.681, 196.699 373.291, 199.561 386.096 C 203.136 402.086, 215.010 420.214, 229.592 431.945 C 238.007 438.714, 240.916 440.418, 245.896 441.491 C 249.116 442.185, 249.256 442.101, 248.609 439.861 C 247.043 434.442, 246.795 426.679, 248.005 420.975 C 249.278 414.978, 249.264 414.895, 246.327 410.715 C 228.784 385.743, 226.153 354.516, 239.718 332.265 C 243.803 325.563, 253.521 315.049, 261.441 308.762 C 270.267 301.756, 281.794 297.039, 290.156 297.012 C 293.266 297.002, 293.738 296.713, 293.311 295.081 C 292.972 293.787, 294.130 291.729, 296.869 288.758 C 302.014 283.177, 306.859 280.497, 310.262 281.351 C 312.500 281.913, 318.445 288.755, 322.657 295.616 C 323.715 297.341, 323.946 297.189, 325.390 293.821 C 330.731 281.363, 336.195 252.192, 336.127 236.500 C 336.015 210.718, 326.414 182.753, 311.238 164.005 C 297.353 146.853, 276.431 133.650, 255 128.517 C 249.225 127.134, 243.085 126.002, 241.355 126.001 C 238.233 126, 238.217 126.027, 239.081 129.750 M 465.315 142.007 C 464.114 142.491, 462.651 143.783, 462.065 144.878 C 461.326 146.259, 461 189.382, 461 285.712 C 461 409.757, 461.166 424.792, 462.557 426.777 C 464.091 428.969, 464.450 429, 487.985 429 C 508.354 429, 512.088 428.769, 513.429 427.429 C 514.812 426.045, 515 420.303, 515 379.429 L 515 333 569.365 333 C 622.851 333, 623.773 332.966, 626.365 330.927 L 629 328.855 629 308.427 C 629 289.333, 628.869 287.869, 627 286 C 625.048 284.048, 623.667 284, 570 284 L 515 284 515 238.020 L 515 192.039 585.973 191.770 L 656.945 191.500 659.223 189.225 C 661.399 187.051, 661.514 186.139, 661.824 168.725 C 662.218 146.623, 661.568 143.530, 656.222 142.045 C 651.580 140.756, 468.511 140.719, 465.315 142.007 M 707.210 142.086 C 705.126 142.714, 703.565 144.013, 702.950 145.631 C 702.335 147.250, 702.075 199.059, 702.240 287.173 C 702.495 423.446, 702.538 426.189, 704.441 427.581 C 705.986 428.710, 711.140 429, 729.691 429 C 751.667 429, 753.114 428.886, 755 427 C 756.981 425.019, 757 423.667, 757 286.056 L 757 147.112 754.588 144.306 L 752.176 141.500 731.338 141.297 C 719.774 141.184, 709.036 141.535, 707.210 142.086 M 817.501 142.066 C 815.852 142.558, 813.939 143.730, 813.251 144.671 C 812.264 146.021, 812 175.709, 812 285.469 C 812 409.734, 812.166 424.792, 813.557 426.777 L 815.113 429 936.402 429 C 1052.634 429, 1057.759 428.924, 1059.345 427.171 C 1060.868 425.488, 1061 414.210, 1061 285.326 L 1061 145.310 1058.897 143.405 C 1056.998 141.686, 1054.768 141.467, 1036.013 141.164 C 1018.404 140.880, 1014.757 141.074, 1012.116 142.440 C 1010.402 143.326, 1008.893 144.152, 1008.762 144.276 C 1008.632 144.399, 1008.294 188.024, 1008.012 241.219 L 1007.500 337.939 989.087 311.719 C 978.960 297.299, 948.221 253.451, 920.777 214.280 C 874.023 147.547, 870.648 142.996, 867.190 142.036 C 862.700 140.789, 821.702 140.814, 817.501 142.066 M 1130.761 141.715 C 1124.620 142.647, 1125 133.134, 1125 286.068 C 1125 420.062, 1125.074 425.757, 1126.829 427.345 C 1128.501 428.859, 1136.217 429, 1217.256 429 L 1305.855 429 1307.927 426.365 C 1309.863 423.905, 1310 422.443, 1310 404.315 C 1310 383.339, 1309.291 379.847, 1304.790 378.641 C 1303.531 378.303, 1274.713 378.021, 1240.750 378.014 L 1179 378 1179 263.047 C 1179 179.258, 1178.692 147.417, 1177.862 145.597 C 1177.236 144.223, 1175.369 142.627, 1173.713 142.050 C 1170.859 141.055, 1136.858 140.790, 1130.761 141.715 M 1267.657 141.707 C 1266.517 142.001, 1265.983 142.827, 1266.257 143.874 C 1266.500 144.805, 1288.367 182.125, 1314.850 226.809 L 1363 308.051 1363 366.871 C 1363 422.584, 1363.097 425.777, 1364.829 427.345 C 1366.419 428.784, 1369.666 429, 1389.756 429 L 1412.855 429 1414.927 426.365 C 1416.971 423.768, 1417 422.900, 1417 365.175 L 1417 306.619 1432.750 280.107 C 1515.313 141.128, 1513.911 143.564, 1512.164 142.199 C 1510.867 141.185, 1504.384 140.964, 1482.776 141.199 C 1456.579 141.483, 1454.946 141.610, 1453.114 143.500 C 1451.403 145.266, 1442.220 161.747, 1401.296 236.500 C 1395.576 246.950, 1390.540 255.856, 1390.107 256.291 C 1389.673 256.726, 1376.362 233.326, 1360.527 204.291 C 1326.540 141.974, 1327.334 143.312, 1323.603 142.011 C 1320.742 141.014, 1271.386 140.746, 1267.657 141.707 M 218.626 211.796 C 218.316 212.297, 218.602 214.134, 219.260 215.879 C 220.770 219.879, 219.684 221.843, 214.548 224.396 C 210.029 226.642, 206.069 225.772, 204.500 222.188 C 203.772 220.525, 202.956 220.066, 201.500 220.499 C 200.400 220.827, 194.811 221.974, 189.081 223.048 C 176.610 225.384, 165.510 225.527, 154 223.500 C 149.325 222.677, 145.500 222.003, 145.500 222.004 C 145.500 222.005, 145.503 224.988, 145.506 228.632 L 145.512 235.258 150.860 237.618 C 156.977 240.318, 169.876 244.511, 175.051 245.482 C 178.393 246.109, 178.634 245.956, 180.305 242.170 C 183.011 236.036, 192.249 232.922, 198.237 236.127 C 199.901 237.018, 200.571 236.939, 201.439 235.753 C 205.338 230.421, 216.687 228.235, 223.143 231.574 C 224.816 232.439, 226.454 232.880, 226.781 232.553 C 227.108 232.226, 227.551 229.380, 227.766 226.229 C 228.082 221.601, 227.696 219.635, 225.754 216 C 223.458 211.702, 219.960 209.638, 218.626 211.796 M 209.757 217.209 C 206.472 218.919, 206.147 219.406, 207.099 221.186 C 207.969 222.811, 208.808 223.088, 211.329 222.584 C 215.485 221.753, 217.377 219.764, 216.535 217.112 C 215.740 214.607, 214.729 214.621, 209.757 217.209 M 299 219.766 C 297.075 220.712, 293.404 223.514, 290.842 225.993 C 286.597 230.100, 286.126 231.032, 285.528 236.500 C 284.856 242.647, 282.644 250.872, 279.424 259.198 C 277.810 263.371, 277.768 264.197, 279.043 266.580 C 281.026 270.287, 286.048 273.909, 291.458 275.538 L 296.007 276.906 298.141 272.703 C 299.315 270.391, 301.082 267.466, 302.069 266.202 C 303.521 264.342, 303.667 263.343, 302.835 260.955 C 301.966 258.463, 302.209 257.319, 304.403 253.575 C 307.715 247.924, 307.745 244.048, 304.500 241 C 303.125 239.708, 302 238.040, 302 237.292 C 302 236.545, 303.125 233.713, 304.500 231 C 307.212 225.647, 307.571 222.936, 305.965 219.934 C 304.702 217.574, 303.517 217.546, 299 219.766 M 865 302.300 L 865 382 920.568 382 L 976.136 382 974.213 379.250 C 973.155 377.738, 948.538 342.300, 919.507 300.500 C 890.477 258.700, 866.337 224.072, 865.862 223.550 C 865.378 223.017, 865 257.571, 865 302.300 M 204.922 235.941 C 200.888 238.650, 200.047 238.836, 194.256 238.295 L 187.968 237.708 183.811 242.079 L 179.653 246.449 183.076 247.280 C 184.959 247.736, 191.450 248.182, 197.500 248.269 C 207.080 248.408, 209.179 248.127, 213.757 246.088 C 216.649 244.801, 220.420 242.146, 222.139 240.189 L 225.263 236.631 223.021 234.816 C 221.436 233.533, 219.094 233, 215.040 233 C 210.348 233, 208.502 233.537, 204.922 235.941 M 227.640 253.845 C 222.863 259.123, 204.442 264.562, 193.918 263.800 C 189.710 263.496, 188.282 263.682, 189.038 264.435 C 191.020 266.413, 206.873 265.666, 214.684 263.227 C 221.543 261.084, 229.879 255.910, 230.755 253.250 C 231.367 251.391, 229.547 251.738, 227.640 253.845 M 80.250 281.662 C 78.107 282.527, 78.877 287.479, 81.750 291.313 C 85.377 296.151, 94.227 302.710, 98.827 303.970 C 100.847 304.523, 103.973 305.881, 105.774 306.988 C 107.575 308.094, 109.214 309, 109.416 309 C 109.781 309, 113 301.371, 113 300.505 C 113 300.256, 111.763 299.411, 110.250 298.628 C 108.737 297.846, 103.565 294.031, 98.756 290.151 C 93.946 286.271, 88.321 282.628, 86.256 282.054 C 82.182 280.923, 82.097 280.917, 80.250 281.662 M 304.250 290.034 C 299.414 293.606, 299.223 294.342, 302.060 298.500 C 309.266 309.061, 316.051 326.669, 318.721 341.739 L 320.366 351.022 324.284 352.076 C 326.439 352.657, 328.409 352.924, 328.662 352.671 C 330.059 351.274, 330.014 340.368, 328.577 332.086 C 325.760 315.854, 318.993 299.220, 311.737 290.698 L 308.500 286.895 304.250 290.034 M 117.483 306.032 C 116.621 307.700, 115.423 312.537, 114.820 316.782 C 113.404 326.769, 114.763 332.651, 118.717 333.644 C 124.080 334.990, 128.648 330.008, 131.054 320.187 C 131.842 316.972, 132.542 315.957, 133.805 316.196 C 135.064 316.435, 135.579 317.755, 135.807 321.325 C 136.429 331.048, 129.073 340, 120.459 340 C 118.217 340, 115.510 339.362, 114.445 338.583 C 112.689 337.299, 112.259 337.463, 109.861 340.333 C 107.480 343.184, 106.681 343.495, 101.858 343.445 C 91.700 343.342, 81.418 336.557, 79.446 328.655 C 78.663 325.520, 73.819 322.010, 70.269 322.004 C 67.203 321.999, 66.236 326.176, 68.302 330.506 C 71.221 336.628, 79.699 341.378, 92.351 343.980 C 95.762 344.682, 100.061 346.494, 102.659 348.325 C 106.497 351.030, 108.156 351.520, 114.594 351.845 C 121.437 352.190, 122.408 351.989, 126.027 349.481 C 129.283 347.225, 130.249 346.962, 131.491 347.993 C 133.433 349.605, 133.397 350.904, 131.345 353.171 C 129.790 354.890, 129.821 355, 131.871 355 C 134.869 355, 142.284 347.346, 145.572 340.857 C 147.291 337.466, 148.448 333.282, 148.767 329.309 C 149.239 323.431, 149.128 323.015, 146.799 321.954 C 145.441 321.336, 143.506 319.405, 142.498 317.665 C 137.229 308.567, 129.969 303, 123.375 303 C 119.572 303, 118.862 303.365, 117.483 306.032 M 282.024 304.603 C 250.733 313.012, 238.205 356.752, 256.848 392.500 C 262.098 402.568, 272.144 412.784, 281.426 417.495 L 288.863 421.270 293.413 418.604 C 298.692 415.510, 300 413.509, 300 408.524 L 300 404.916 295.750 407.360 C 287.744 411.964, 280.684 411.895, 275.034 407.158 C 272.693 405.195, 271.718 403.396, 271.304 400.278 C 270.797 396.452, 271.067 395.733, 274.182 392.618 C 276.789 390.011, 278.816 389.006, 282.560 388.464 C 289.043 387.524, 290 386.609, 290 381.345 C 290 376.157, 291.870 371.261, 294.876 368.582 C 296.585 367.060, 296.899 365.978, 296.402 363.327 C 295.850 360.386, 296.243 359.521, 299.712 356.052 C 302.931 352.834, 304.601 351.989, 308.866 351.423 L 314.082 350.731 313.413 346.116 C 311.645 333.930, 306.466 318.439, 300.753 308.250 L 297.809 303 292.655 303.066 C 289.820 303.102, 285.036 303.794, 282.024 304.603 M 92.361 311.502 C 91.083 314.831, 92.973 317.894, 97.552 319.920 C 100.047 321.024, 103.418 322.874, 105.044 324.031 L 108 326.136 108 320.727 L 108 315.318 103.115 312.659 C 97.676 309.699, 93.236 309.221, 92.361 311.502 M 186.936 316.597 C 181.135 324.358, 167.835 333.352, 158.404 335.891 C 154.810 336.859, 153.976 337.694, 151.172 343.131 L 148.003 349.276 154.435 348.617 C 166.873 347.343, 174.828 343.067, 185.368 331.992 L 192 325.024 192 318.512 C 192 314.930, 191.634 312, 191.186 312 C 190.738 312, 188.826 314.069, 186.936 316.597 M 87.250 325.662 C 85.122 326.521, 85.865 329.496, 88.942 332.444 C 94.289 337.567, 106 339.025, 106 334.568 C 106 332.876, 99.628 327.189, 96.324 325.933 C 93.732 324.948, 89.345 324.817, 87.250 325.662 M 335.465 343.863 C 335.503 354.298, 335.825 357.162, 337.128 358.652 C 340.863 362.926, 342.122 368.677, 340.042 371.966 C 339.532 372.773, 339.480 373.898, 339.927 374.466 C 340.374 375.035, 341.305 377.255, 341.996 379.399 C 343.953 385.468, 345.068 381.781, 345.080 369.207 C 345.092 355.552, 342.791 345.297, 337.323 334.638 L 335.416 330.922 335.465 343.863 M 240.128 347.345 C 239.514 348.085, 238.718 350.162, 238.358 351.960 C 237.738 355.062, 237.814 355.170, 239.852 354.079 C 241.415 353.243, 242 351.986, 242 349.465 C 242 345.635, 241.767 345.371, 240.128 347.345 M 238.585 357.906 C 237.518 359.085, 236.982 361.005, 237.180 362.935 C 237.490 365.964, 237.568 366.010, 239.750 364.472 C 241.341 363.351, 242 361.878, 242 359.443 C 242 355.549, 241.089 355.139, 238.585 357.906 M 306 358.688 C 301.265 361.139, 301.399 363.379, 306.290 363.549 C 308.375 363.622, 310.615 364.215, 311.268 364.868 C 313.061 366.661, 310.865 369.446, 307.399 369.774 C 299.334 370.537, 296.010 374.044, 296.004 381.800 C 295.997 389.774, 292.931 392.950, 283.782 394.464 C 277.384 395.522, 275.288 399.141, 279.084 402.576 C 282.139 405.341, 287.494 404.788, 294.796 400.953 L 301.091 397.647 303.247 399.802 C 304.881 401.437, 305.501 403.497, 305.808 408.323 C 306.191 414.338, 306.035 414.891, 302.969 418.382 C 301.185 420.414, 297.762 423.227, 295.363 424.633 C 290.444 427.516, 290.120 428.611, 293.073 432.365 C 294.601 434.309, 296.057 435, 298.620 435 C 304.062 435, 306.506 431.633, 311.503 417.250 C 312.214 415.202, 315.716 415.807, 316.311 418.081 C 316.610 419.226, 316.266 422.122, 315.545 424.517 C 314.351 428.484, 314.380 428.779, 315.867 427.839 C 318.678 426.065, 321.352 421.769, 321.955 418.063 C 322.438 415.091, 322.946 414.500, 325.017 414.500 C 327.350 414.500, 327.497 414.816, 327.458 419.734 C 327.418 424.773, 327.492 424.918, 329.458 423.641 C 332.894 421.408, 337.715 412.314, 338.954 405.726 C 340.378 398.155, 339.102 388.596, 335.447 379.459 C 332.643 372.450, 332.553 371.688, 334.220 369.019 C 335.841 366.423, 332.874 362.246, 327.521 359.589 C 321.934 356.816, 310.537 356.339, 306 358.688 M 239.133 367.892 C 237.380 369.220, 236.943 370.245, 237.450 371.843 C 238.245 374.348, 238.822 374.450, 241.354 372.532 C 242.790 371.444, 243.016 370.559, 242.354 368.613 C 241.515 366.144, 241.458 366.131, 239.133 367.892 M 240.864 375.892 C 238.924 377.418, 238.389 378.582, 238.752 380.483 C 239.402 383.881, 240.125 384.168, 242.855 382.109 C 244.818 380.628, 245.031 379.898, 244.309 377.111 L 243.463 373.848 240.864 375.892 M 242.704 385.425 C 241.408 386.409, 241.090 387.512, 241.563 389.394 C 242.296 392.315, 243.712 392.662, 246.519 390.610 C 248.152 389.416, 248.253 388.850, 247.232 386.610 C 245.888 383.660, 245.252 383.494, 242.704 385.425 M 246.832 393.782 C 244.337 395.419, 244.270 395.668, 245.627 398.258 C 247.236 401.329, 247.601 401.434, 250.661 399.715 C 252.755 398.538, 252.770 398.399, 251.148 395.275 C 249.483 392.067, 249.459 392.059, 246.832 393.782 M 251.745 402.611 L 248.991 404.069 251.183 407.034 C 253.730 410.479, 253.230 410.308, 256.453 408.839 C 259.519 407.443, 259.530 407.227, 256.714 403.827 C 254.624 401.302, 254.346 401.235, 251.745 402.611 M 258.231 411.331 L 255.963 412.590 258.963 415.464 C 261.666 418.054, 262.226 418.218, 264.626 417.125 L 267.289 415.911 264.457 412.956 C 261.250 409.607, 261.308 409.622, 258.231 411.331 M 267.250 419.662 C 265.165 420.504, 265.815 421.528, 269.886 423.816 C 273.859 426.048, 276.567 426.487, 279.479 425.370 C 280.712 424.897, 279.869 424.025, 276.096 421.870 C 271.132 419.035, 269.694 418.676, 267.250 419.662 M 236 447.688 C 227.362 449.122, 216.358 452.745, 208.540 456.729 C 200.947 460.599, 197.810 463.029, 188.939 471.918 C 183.130 477.738, 176.437 485.370, 174.065 488.877 C 168.028 497.804, 161.490 512.187, 159.599 520.697 C 157.912 528.292, 157.428 541, 158.826 541 C 159.280 541, 160.742 539.832, 162.076 538.405 C 167.498 532.600, 182.542 526.368, 199.486 522.906 C 217.894 519.145, 227.670 511.789, 235.351 495.915 C 241.787 482.614, 245 470.779, 245.712 457.750 L 246.300 447 242.400 447.136 C 240.255 447.211, 237.375 447.459, 236 447.688 M 252 453.196 C 252 468.715, 263.234 493.908, 276.328 507.753 C 284.898 516.815, 294.507 520.823, 310.500 522.007 C 322.125 522.867, 339.685 526.034, 344.581 528.152 C 346.186 528.846, 349.863 530.891, 352.750 532.695 C 358.712 536.420, 358.656 536.521, 356.562 525.838 C 353.235 508.867, 345.269 495.020, 329.705 479.156 C 309.143 458.197, 290.655 449.406, 264.750 448.271 L 252 447.713 252 453.196" stroke="none" fill="#fbfbfb" fill-rule="evenodd"/></svg>